<?xml version="1.0" encoding="UTF-8"?>
<svg xmlns="http://www.w3.org/2000/svg" xmlns:xlink="http://www.w3.org/1999/xlink" viewBox="0 0 712.56 404.04">
  <defs>
    <style>
      .cls-1 {
        fill: #ec008c;
      }

      .cls-2, .cls-3 {
        fill: #fff;
      }

      .cls-4 {
        fill: #ce0f46;
      }

      .cls-5, .cls-6 {
        fill: #231f20;
      }

      .cls-7 {
        fill: #c7c8ca;
      }

      .cls-7, .cls-8, .cls-9, .cls-10, .cls-11 {
        mix-blend-mode: multiply;
      }

      .cls-9 {
        fill: url(#linear-gradient);
        opacity: .7;
      }

      .cls-12 {
        stroke: #008aca;
        stroke-width: .81px;
      }

      .cls-12, .cls-13, .cls-14 {
        fill: none;
      }

      .cls-12, .cls-15, .cls-6, .cls-16 {
        mix-blend-mode: darken;
      }

      .cls-13 {
        stroke-width: 2.49px;
      }

      .cls-13, .cls-14 {
        stroke: #ec008c;
      }

      .cls-15 {
        fill: #008aca;
      }

      .cls-6 {
        font-family: Helvetica-Bold, Helvetica;
        font-size: 22.45px;
        font-weight: 700;
      }

      .cls-17 {
        fill: url(#linear-gradient-8);
      }

      .cls-18 {
        fill: url(#linear-gradient-9);
      }

      .cls-19 {
        fill: url(#linear-gradient-3);
      }

      .cls-20 {
        fill: url(#linear-gradient-4);
      }

      .cls-21 {
        fill: url(#linear-gradient-2);
      }

      .cls-22 {
        fill: url(#linear-gradient-6);
      }

      .cls-23 {
        fill: url(#linear-gradient-7);
      }

      .cls-24 {
        fill: url(#linear-gradient-5);
      }

      .cls-16 {
        opacity: .75;
      }

      .cls-25 {
        opacity: .4;
      }

      .cls-14 {
        stroke-width: 2.93px;
      }

      .cls-26 {
        fill: url(#linear-gradient-41);
      }

      .cls-27 {
        fill: url(#linear-gradient-40);
      }

      .cls-28 {
        fill: url(#linear-gradient-43);
      }

      .cls-29 {
        fill: url(#linear-gradient-42);
      }

      .cls-30 {
        fill: url(#linear-gradient-45);
      }

      .cls-31 {
        fill: url(#linear-gradient-46);
      }

      .cls-32 {
        fill: url(#linear-gradient-44);
      }

      .cls-33 {
        fill: url(#linear-gradient-49);
      }

      .cls-34 {
        fill: url(#linear-gradient-47);
      }

      .cls-35 {
        fill: url(#linear-gradient-48);
      }

      .cls-36 {
        fill: url(#linear-gradient-14);
      }

      .cls-37 {
        fill: url(#linear-gradient-18);
      }

      .cls-38 {
        fill: url(#linear-gradient-22);
      }

      .cls-39 {
        fill: url(#linear-gradient-20);
      }

      .cls-40 {
        fill: url(#linear-gradient-21);
      }

      .cls-41 {
        fill: url(#linear-gradient-23);
      }

      .cls-42 {
        fill: url(#linear-gradient-15);
      }

      .cls-43 {
        fill: url(#linear-gradient-19);
      }

      .cls-44 {
        fill: url(#linear-gradient-16);
      }

      .cls-45 {
        fill: url(#linear-gradient-17);
      }

      .cls-46 {
        fill: url(#linear-gradient-13);
      }

      .cls-47 {
        fill: url(#linear-gradient-12);
      }

      .cls-48 {
        fill: url(#linear-gradient-10);
      }

      .cls-49 {
        fill: url(#linear-gradient-11);
      }

      .cls-50 {
        fill: url(#linear-gradient-27);
      }

      .cls-51 {
        fill: url(#linear-gradient-24);
      }

      .cls-52 {
        fill: url(#linear-gradient-26);
      }

      .cls-53 {
        fill: url(#linear-gradient-38);
      }

      .cls-54 {
        fill: url(#linear-gradient-35);
      }

      .cls-55 {
        fill: url(#linear-gradient-37);
      }

      .cls-56 {
        fill: url(#linear-gradient-34);
      }

      .cls-57 {
        fill: url(#linear-gradient-39);
      }

      .cls-58 {
        fill: url(#linear-gradient-36);
      }

      .cls-59 {
        fill: url(#linear-gradient-25);
      }

      .cls-60 {
        fill: url(#linear-gradient-28);
      }

      .cls-61 {
        fill: url(#linear-gradient-29);
      }

      .cls-62 {
        fill: url(#linear-gradient-33);
      }

      .cls-63 {
        fill: url(#linear-gradient-30);
      }

      .cls-64 {
        fill: url(#linear-gradient-32);
      }

      .cls-65 {
        fill: url(#linear-gradient-31);
      }

      .cls-66 {
        isolation: isolate;
      }

      .cls-10 {
        opacity: .9;
      }

      .cls-11 {
        opacity: .65;
      }

      .cls-3 {
        stroke: #fefdfd;
        stroke-linecap: round;
        stroke-linejoin: round;
        stroke-width: .37px;
      }
    </style>
    <linearGradient id="linear-gradient" x1="219.18" y1="1186.34" x2="877.51" y2="946.73" gradientTransform="translate(-177.82 -826.55)" gradientUnits="userSpaceOnUse">
      <stop offset=".06" stop-color="#ec008c"/>
      <stop offset=".49" stop-color="#ec008c" stop-opacity=".1"/>
      <stop offset=".93" stop-color="#ec008c"/>
    </linearGradient>
    <linearGradient id="linear-gradient-2" x1="433.19" y1="1171.27" x2="471.34" y2="1201.73" gradientTransform="translate(-115.48 -847.48) rotate(.24) scale(.99)" gradientUnits="userSpaceOnUse">
      <stop offset="0" stop-color="#fff"/>
      <stop offset="1" stop-color="#93c2e5"/>
    </linearGradient>
    <linearGradient id="linear-gradient-3" x1="429.97" y1="1118.04" x2="458.48" y2="1140.8" xlink:href="#linear-gradient-2"/>
    <linearGradient id="linear-gradient-4" x1="318.98" y1="1123.52" x2="340.14" y2="1140.41" xlink:href="#linear-gradient-2"/>
    <linearGradient id="linear-gradient-5" x1="357.93" y1="1179.77" x2="375.44" y2="1193.75" xlink:href="#linear-gradient-2"/>
    <linearGradient id="linear-gradient-6" x1="743.11" y1="1131.28" x2="786.16" y2="1165.65" xlink:href="#linear-gradient-2"/>
    <linearGradient id="linear-gradient-7" x1="543.31" y1="1151.59" x2="571.8" y2="1174.33" xlink:href="#linear-gradient-2"/>
    <linearGradient id="linear-gradient-8" x1="715.14" y1="1094.92" x2="764.07" y2="1133.98" xlink:href="#linear-gradient-2"/>
    <linearGradient id="linear-gradient-9" x1="608.24" y1="1055.82" x2="673.84" y2="1108.2" xlink:href="#linear-gradient-2"/>
    <linearGradient id="linear-gradient-10" x1="254.3" y1="1101.52" x2="325.34" y2="1158.23" xlink:href="#linear-gradient-2"/>
    <linearGradient id="linear-gradient-11" x1="576.73" y1="1201.01" x2="588.59" y2="1210.47" xlink:href="#linear-gradient-2"/>
    <linearGradient id="linear-gradient-12" x1="604.99" y1="1135.51" x2="663.4" y2="1182.14" xlink:href="#linear-gradient-2"/>
    <linearGradient id="linear-gradient-13" x1="177.83" y1="1071.03" x2="233.34" y2="1115.34" xlink:href="#linear-gradient-2"/>
    <linearGradient id="linear-gradient-14" x1="722.48" y1="1181.27" x2="762.08" y2="1212.88" xlink:href="#linear-gradient-2"/>
    <linearGradient id="linear-gradient-15" x1="504.78" y1="1123.88" x2="541.16" y2="1152.93" xlink:href="#linear-gradient-2"/>
    <linearGradient id="linear-gradient-16" x1="375.67" y1="1090.25" x2="446.83" y2="1147.07" xlink:href="#linear-gradient-2"/>
    <linearGradient id="linear-gradient-17" x1="169.68" y1="1149.9" x2="227.29" y2="1195.89" xlink:href="#linear-gradient-2"/>
    <linearGradient id="linear-gradient-18" x1="315.21" y1="1173.83" x2="342.32" y2="1195.48" xlink:href="#linear-gradient-2"/>
    <linearGradient id="linear-gradient-19" x1="470.01" y1="939.23" x2="480.82" y2="947.87" gradientTransform="translate(-177.82 -826.55)" xlink:href="#linear-gradient-2"/>
    <linearGradient id="linear-gradient-20" x1="555.02" y1="995.19" x2="563.81" y2="1002.2" gradientTransform="translate(-177.82 -826.55)" xlink:href="#linear-gradient-2"/>
    <linearGradient id="linear-gradient-21" x1="381.29" y1="971.8" x2="395.23" y2="982.93" gradientTransform="translate(-177.82 -826.55)" xlink:href="#linear-gradient-2"/>
    <linearGradient id="linear-gradient-22" x1="534.46" y1="963.6" x2="546.69" y2="973.36" gradientTransform="translate(-177.82 -826.55)" xlink:href="#linear-gradient-2"/>
    <linearGradient id="linear-gradient-23" x1="250.38" y1="1012.57" x2="260.93" y2="1020.99" gradientTransform="translate(-177.82 -826.55)" xlink:href="#linear-gradient-2"/>
    <linearGradient id="linear-gradient-24" x1="189.02" y1="969.55" x2="231.48" y2="1003.45" gradientTransform="translate(-177.82 -826.55)" xlink:href="#linear-gradient-2"/>
    <linearGradient id="linear-gradient-25" x1="383.07" y1="998.25" x2="401.73" y2="1013.14" gradientTransform="translate(-177.82 -826.55)" xlink:href="#linear-gradient-2"/>
    <linearGradient id="linear-gradient-26" x1="227.23" y1="982.33" x2="239.5" y2="992.12" gradientTransform="translate(-177.82 -826.55)" xlink:href="#linear-gradient-2"/>
    <linearGradient id="linear-gradient-27" x1="851.49" y1="972.99" x2="851.92" y2="973.34" gradientTransform="translate(-177.82 -826.55)" xlink:href="#linear-gradient-2"/>
    <linearGradient id="linear-gradient-28" x1="815" y1="955.92" x2="845.69" y2="980.42" gradientTransform="translate(-177.82 -826.55)" xlink:href="#linear-gradient-2"/>
    <linearGradient id="linear-gradient-29" x1="832.88" y1="979.11" x2="858.88" y2="999.87" gradientTransform="translate(-177.82 -826.55)" xlink:href="#linear-gradient-2"/>
    <linearGradient id="linear-gradient-30" x1="686.41" y1="970.23" x2="699.19" y2="980.43" gradientTransform="translate(-177.82 -826.55)" xlink:href="#linear-gradient-2"/>
    <linearGradient id="linear-gradient-31" x1="623.75" y1="964.87" x2="645.94" y2="982.57" gradientTransform="translate(-177.82 -826.55)" xlink:href="#linear-gradient-2"/>
    <linearGradient id="linear-gradient-32" x1="609.56" y1="946.44" x2="633.47" y2="965.52" gradientTransform="translate(-177.82 -826.55)" xlink:href="#linear-gradient-2"/>
    <linearGradient id="linear-gradient-33" x1="772.04" y1="981.18" x2="788.04" y2="993.95" gradientTransform="translate(-177.82 -826.55)" xlink:href="#linear-gradient-2"/>
    <linearGradient id="linear-gradient-34" x1="773.38" y1="1009.05" x2="794.93" y2="1026.26" gradientTransform="translate(-177.82 -826.55)" xlink:href="#linear-gradient-2"/>
    <linearGradient id="linear-gradient-35" x1="651.94" y1="957.29" x2="689.15" y2="987" gradientTransform="translate(-177.82 -826.55)" xlink:href="#linear-gradient-2"/>
    <linearGradient id="linear-gradient-36" x1="613.06" y1="991.18" x2="633.63" y2="1007.6" gradientTransform="translate(-177.82 -826.55)" xlink:href="#linear-gradient-2"/>
    <linearGradient id="linear-gradient-37" x1="561.1" y1="957.98" x2="598.25" y2="987.63" gradientTransform="translate(-177.82 -826.55)" xlink:href="#linear-gradient-2"/>
    <linearGradient id="linear-gradient-38" x1="708.78" y1="968.35" x2="746.03" y2="998.09" gradientTransform="translate(-177.82 -826.55)" xlink:href="#linear-gradient-2"/>
    <linearGradient id="linear-gradient-39" x1="819.77" y1="1008.62" x2="845.2" y2="1028.93" gradientTransform="translate(-177.82 -826.55)" xlink:href="#linear-gradient-2"/>
    <linearGradient id="linear-gradient-40" x1="532.73" y1="989.75" x2="548.17" y2="1002.07" gradientTransform="translate(-177.82 -826.55)" xlink:href="#linear-gradient-2"/>
    <linearGradient id="linear-gradient-41" x1="743" y1="965.05" x2="780.29" y2="994.82" gradientTransform="translate(-177.82 -826.55)" xlink:href="#linear-gradient-2"/>
    <linearGradient id="linear-gradient-42" x1="306.7" y1="966.42" x2="333.93" y2="988.16" gradientTransform="translate(-177.82 -826.55)" xlink:href="#linear-gradient-2"/>
    <linearGradient id="linear-gradient-43" x1="225.02" y1="1011.74" x2="239.78" y2="1023.51" gradientTransform="translate(-177.82 -826.55)" xlink:href="#linear-gradient-2"/>
    <linearGradient id="linear-gradient-44" x1="325.78" y1="1001.36" x2="341.97" y2="1014.28" gradientTransform="translate(-177.82 -826.55)" xlink:href="#linear-gradient-2"/>
    <linearGradient id="linear-gradient-45" x1="260.34" y1="976.87" x2="296.14" y2="1005.45" gradientTransform="translate(-177.82 -826.55)" xlink:href="#linear-gradient-2"/>
    <linearGradient id="linear-gradient-46" x1="460.46" y1="983.93" x2="488.71" y2="1006.47" gradientTransform="translate(-177.82 -826.55)" xlink:href="#linear-gradient-2"/>
    <linearGradient id="linear-gradient-47" x1="500.28" y1="951.23" x2="537.39" y2="980.85" gradientTransform="translate(-177.82 -826.55)" xlink:href="#linear-gradient-2"/>
    <linearGradient id="linear-gradient-48" x1="354.1" y1="957.79" x2="390.01" y2="986.45" gradientTransform="translate(-177.82 -826.55)" xlink:href="#linear-gradient-2"/>
    <linearGradient id="linear-gradient-49" x1="417.25" y1="948.91" x2="461.19" y2="983.99" gradientTransform="translate(-177.82 -826.55)" xlink:href="#linear-gradient-2"/>
  </defs>
  <g class="cls-66">
    <g id="RiceKrispiesTreats">
      <g id="RKT">
        <g>
          <g class="cls-16">
            <path class="cls-5" d="M322.85,81.01h-.44s-15.96,.61-15.96,.61c-6.34,.24-11.92,3.2-15.63,7.75-3.82-4.04-9.21-6.55-15.17-6.55h-.43s-15.36,.59-15.36,.59c-10.73,.41-19.54,9.17-20.26,19.83-2.28-.87-4.76-1.36-7.35-1.36h-.94s-46.35,3.89-46.35,3.89c-3.63,.3-7,1.56-9.87,3.5-4.25-1.18-8.73-1.77-13.33-1.77-2,0-4.05,.12-6.06,.35-11.12,1.26-21.09,5.59-29.16,12.13-3.67-3.48-8.62-5.63-14.07-5.63l-1.5,.02-13.92,1.92c-2.19,.3-4.27,.94-6.17,1.87-7.02-6.53-16.25-10.43-26.49-10.43-2.16,0-4.36,.18-6.52,.54l-36.76,6.11c-10.26,1.71-17.99,10.82-17.99,21.2v84.14c0,7.59,4.09,14.22,10.16,17.85l-.1,21.9c-.04,7.91,2.97,15.32,8.48,20.87,5.44,5.47,12.69,8.48,20.43,8.48,1.17,0,2.36-.07,3.55-.22l3.58-.43-.36,83.87c-.02,7.96,2.99,15.36,8.47,20.86,5.42,5.44,12.66,8.42,20.39,8.42,1.19,0,2.39-.07,3.6-.22l24.07-2.94c10.58-1.29,19.34-8.06,23.59-17.26,.82,1.09,1.72,2.13,2.7,3.12,5.51,5.52,12.87,8.57,20.74,8.57,.68,0,1.37-.02,2.15-.08l24.14-1.76c11.26-.81,20.76-8.03,25.04-17.95,12.74,9.15,28.24,14.3,45.22,14.3,2.08,0,4.21-.08,6.35-.23,3.49-.25,6.81-1.13,9.85-2.52,1.65,.29,3.34,.44,5.05,.44,.17,0,88.1-1.7,88.1-1.7,1.99-.03,3.93-.27,5.8-.68,1.28,.22,2.58,.37,3.88,.41l25.15,.96c.34,.02,.9,.03,1.24,.03,11.57,0,22.04-6.54,27.21-16.82l11.38,.43c4.72,11.23,15.11,18.48,27.22,18.93l25.2,.97c.33,0,.76,.02,1.09,.02,2.79,0,5.53-.41,8.16-1.19,3.52,1.91,7.49,3.13,11.75,3.48l24.08,1.98c.86,.07,1.7,.1,2.52,.1,11.92,0,21.97-6.83,26.56-16.89,16.63,15.2,38.38,25.75,58.61,28.36,4.4,.57,8.77,.86,12.98,.86,40.84,0,69.48-27.54,69.65-66.9v-.88c.08-17.53-5.02-39.26-25.78-55.71l10.39-13.31c7.43-9.7,7.97-22.68,1.99-33.01,15.41-6.48,25.15-21.01,25.15-39.7v-.52c0-10.9-3.05-24.4-15.03-35.3l4.62-5.82c6.35-8.16,5.81-19.75-1.26-27.56l-.26-.29-.27-.28c-10.06-10.23-21.02-16.22-33.49-18.32-3.23-.55-6.43-.82-9.52-.82-11.53,0-21.45,3.79-28.74,10.36-.72-.18-1.45-.32-2.2-.42l-45.32-6.1-1.46-.19h-1.28c-2.09,0-4.12,.32-6.02,.91-2.41-1.38-5.12-2.29-8.03-2.61l-12.67-1.41-1.2-.13h-1.05c-3.88,0-7.51,1.09-10.61,2.98-5.13-3.24-10.91-5.31-17.02-5.85l-31.67-2.8-.97-.08h-.82c-4.3,0-8.3,1.34-11.61,3.63-6.91-4.1-14.36-6.39-22.24-6.82-1.02-.06-2.02-.09-3.02-.09-8.39,0-15.99,2.04-22.35,5.69-3.64-3.75-8.65-6.15-14.16-6.31l-12.74-.39h-.63c-5.36-.01-10.24,2.05-13.92,5.42-5.91-3.78-12.8-5.97-20.14-5.99l-24.76-.12c-.92-2.74-2.4-5.29-4.38-7.45-3.95-4.34-9.59-6.83-15.47-6.83h0Z"/>
          </g>
          <g>
            <g>
              <path class="cls-2" d="M628.44,398.76c-4.18,0-8.52-.29-12.89-.86-19.96-2.57-41.73-13.1-58.22-28.17l-.75-.68-.42,.92c-4.63,10.16-14.55,16.46-25.88,16.46-.78,0-1.61-.04-2.47-.11l-24.08-1.98c-4.08-.34-7.94-1.48-11.47-3.39l-.27-.15-.29,.09c-2.58,.77-5.25,1.16-7.94,1.16-.32,0-.74,0-1.06-.02l-25.2-.97c-11.79-.45-21.98-7.53-26.57-18.49l-.18-.43-12.32-.47-.21,.42c-5.09,10.12-15.26,16.41-26.54,16.41-.34,0-.87,0-1.21-.03l-25.17-.96c-1.22-.04-2.5-.18-3.79-.4l-.14-.02-.14,.03c-1.83,.4-3.73,.62-5.65,.66-.88,.02-87.58,1.7-88.09,1.7-1.6,0-3.25-.15-4.91-.43l-.22-.04-.21,.09c-3.02,1.38-6.25,2.21-9.59,2.46-2.05,.15-4.17,.23-6.3,.23-16.42,0-31.9-4.9-44.79-14.17l-.74-.54-.36,.84c-4.33,10.04-13.69,16.75-24.42,17.51l-24.14,1.76c-.69,.05-1.36,.08-2.1,.08-7.66,0-14.84-2.97-20.22-8.35-.95-.95-1.83-1.97-2.62-3.04l-.74-1-.52,1.12c-4.31,9.31-12.91,15.61-23.02,16.84l-24.07,2.94c-1.12,.14-2.3,.21-3.51,.21-7.53,0-14.59-2.91-19.87-8.2-5.34-5.36-8.28-12.58-8.26-20.34l.36-84.7-4.41,.54c-1.1,.14-2.26,.21-3.45,.21-7.53,0-14.6-2.93-19.91-8.26-5.37-5.41-8.31-12.63-8.27-20.35l.1-22.32-.36-.22c-6.04-3.61-9.8-10.21-9.8-17.21v-84.14c0-10.03,7.47-18.83,17.38-20.48l36.76-6.11c2.14-.35,4.3-.53,6.4-.53,9.66,0,18.89,3.63,25.99,10.23l.37,.34,.45-.22c1.88-.91,3.88-1.51,5.96-1.8l13.92-1.92h1.41c5.04,0,9.86,1.92,13.55,5.42l.47,.44,.5-.41c8.16-6.61,18.11-10.75,28.78-11.97,1.97-.23,3.98-.34,5.98-.34,4.52,0,8.94,.59,13.13,1.75l.33,.09,.28-.19c2.84-1.93,6.13-3.1,9.51-3.38l46.35-3.89h.89c2.43,0,4.82,.44,7.08,1.3l.93,.36,.07-.99c.7-10.35,9.28-18.76,19.54-19.15l15.37-.59h.4c5.57,0,10.77,2.25,14.63,6.33l.58,.61,.53-.65c3.7-4.53,9.2-7.26,15.09-7.48l15.96-.61h.41c5.68,0,11.12,2.4,14.93,6.59,1.88,2.06,3.34,4.55,4.22,7.19l.17,.5,25.29,.12c6.95,.03,13.77,2.06,19.74,5.88l.48,.31,.42-.38c3.68-3.38,8.45-5.24,13.43-5.24h.61s12.73,.4,12.73,.4c5.15,.16,10,2.32,13.66,6.09l.4,.41,.5-.28c6.38-3.66,13.99-5.59,21.98-5.59,1.06,0,2.04,.03,2.97,.08,7.74,.43,15.11,2.69,21.91,6.72l.41,.24,.39-.27c3.3-2.29,7.17-3.49,11.19-3.49h.83l.91,.08,31.66,2.79c5.86,.51,11.48,2.45,16.69,5.74l.39,.24,.39-.24c3.09-1.88,6.62-2.87,10.23-2.87h1.06l13.79,1.53c2.74,.3,5.35,1.15,7.75,2.52l.28,.16,.3-.09c1.88-.58,3.84-.87,5.8-.87h1.28l1.37,.18,45.31,6.1c.72,.1,1.42,.23,2.12,.4l.38,.09,.29-.26c7.38-6.66,17.15-10.18,28.25-10.18,3.05,0,6.21,.27,9.4,.81,12.31,2.07,23.13,8,33.08,18.11l.28,.28,.23,.26c6.84,7.55,7.35,18.75,1.23,26.62l-5.05,6.36,.51,.46c9.81,8.93,14.79,20.63,14.79,34.77v.51c0,17.94-9.23,32.52-24.69,39.03l-.77,.32,.42,.72c5.94,10.26,5.18,22.9-1.93,32.19l-10.83,13.88,.57,.45c21.2,16.81,25.57,39.26,25.5,55.13v.88c-.17,38.96-28.51,66.17-68.92,66.17h0Z"/>
              <path class="cls-15" d="M709.83,189.98v-.51c0-10.9-3.04-24.4-15.03-35.31l4.63-5.83c6.35-8.16,5.81-19.74-1.27-27.56l-.26-.29-.28-.28c-10.06-10.23-21.01-16.22-33.48-18.32-3.23-.54-6.43-.82-9.52-.82-11.54,0-21.46,3.79-28.75,10.37-.72-.18-1.45-.32-2.2-.42l-45.32-6.1-1.46-.19h-1.28c-2.09,0-4.11,.32-6.02,.91-2.41-1.37-5.13-2.29-8.04-2.61l-12.67-1.41-1.2-.13h-1.06c-3.88,0-7.52,1.09-10.61,2.98-5.13-3.24-10.91-5.32-17.02-5.85l-31.66-2.79-.97-.08h-.83c-4.3,0-8.3,1.34-11.61,3.62-6.91-4.1-14.36-6.39-22.24-6.82-1.02-.06-2.02-.09-3.02-.09-8.39,0-15.99,2.04-22.35,5.69-3.63-3.74-8.64-6.15-14.16-6.31l-12.74-.39h-.62c-5.36-.01-10.25,2.05-13.93,5.42-5.91-3.78-12.8-5.96-20.14-5.99l-24.76-.12c-.92-2.74-2.4-5.29-4.38-7.45-3.95-4.34-9.59-6.83-15.47-6.83h-.44s-15.96,.61-15.96,.61c-6.34,.25-11.92,3.21-15.63,7.75-3.82-4.04-9.2-6.56-15.16-6.56h-.43s-15.37,.59-15.37,.59c-10.73,.4-19.53,9.17-20.25,19.83-2.29-.87-4.76-1.35-7.35-1.35h-.94s-46.35,3.89-46.35,3.89c-3.64,.3-7,1.56-9.87,3.5-4.26-1.18-8.73-1.77-13.33-1.77-2,0-4.05,.12-6.06,.35-11.13,1.27-21.09,5.59-29.16,12.13-3.67-3.48-8.63-5.63-14.07-5.63l-1.5,.02-13.92,1.92c-2.2,.3-4.27,.94-6.17,1.87-7.03-6.53-16.25-10.43-26.49-10.43-2.16,0-4.35,.18-6.52,.54l-36.76,6.11C8.14,111.54,.4,120.65,.4,131.03v84.14c0,7.59,4.09,14.22,10.16,17.85l-.1,21.9c-.04,7.91,2.97,15.32,8.49,20.87,5.44,5.46,12.69,8.48,20.43,8.48,1.18,0,2.36-.07,3.54-.22l3.59-.44-.36,83.87c-.02,7.96,2.99,15.36,8.47,20.86,5.42,5.43,12.66,8.42,20.39,8.42,1.19,0,2.39-.07,3.6-.22l24.07-2.94c10.58-1.29,19.34-8.06,23.6-17.26,.81,1.09,1.71,2.14,2.69,3.12,5.51,5.52,12.87,8.57,20.74,8.57,.67,0,1.37-.02,2.15-.08l24.14-1.76c11.25-.8,20.76-8.03,25.04-17.96,12.73,9.16,28.24,14.31,45.22,14.31,2.09,0,4.21-.07,6.35-.23,3.49-.26,6.8-1.13,9.85-2.52,1.65,.29,3.34,.44,5.05,.44,.17,0,88.1-1.7,88.1-1.7,1.98-.04,3.93-.27,5.8-.68,1.28,.22,2.58,.36,3.88,.41l25.15,.96c.35,.02,.89,.03,1.25,.03,11.57,0,22.04-6.54,27.2-16.82l11.38,.43c4.72,11.23,15.11,18.48,27.23,18.94l25.2,.97c.33,.01,.76,.02,1.09,.02,2.79,0,5.53-.4,8.15-1.19,3.52,1.91,7.49,3.13,11.76,3.48l24.08,1.98c.85,.07,1.7,.11,2.53,.11,11.92,0,21.97-6.84,26.55-16.89,16.63,15.2,38.38,25.75,58.62,28.36,4.4,.57,8.77,.86,12.98,.86,40.84,0,69.48-27.53,69.65-66.9v-.88c.08-17.53-5.02-39.26-25.78-55.71l10.39-13.31c7.42-9.7,7.96-22.67,1.98-33.01,15.4-6.48,25.14-21.01,25.14-39.71Z"/>
            </g>
            <path class="cls-9" d="M709.83,189.98v-.51c0-10.9-3.04-24.4-15.03-35.31l4.63-5.83c6.35-8.16,5.81-19.74-1.27-27.56l-.26-.29-.28-.28c-10.06-10.23-21.01-16.22-33.48-18.32-3.23-.54-6.43-.82-9.52-.82-11.54,0-21.46,3.79-28.75,10.37-.72-.18-1.45-.32-2.2-.42l-45.32-6.1-1.46-.19h-1.28c-2.09,0-4.11,.32-6.02,.91-2.41-1.37-5.13-2.29-8.04-2.61l-12.67-1.41-1.2-.13h-1.06c-3.88,0-7.52,1.09-10.61,2.98-5.13-3.24-10.91-5.32-17.02-5.85l-31.66-2.79-.97-.08h-.83c-4.3,0-8.3,1.34-11.61,3.62-6.91-4.1-14.36-6.39-22.24-6.82-1.02-.06-2.02-.09-3.02-.09-8.39,0-15.99,2.04-22.35,5.69-3.63-3.74-8.64-6.15-14.16-6.31l-12.74-.39h-.62c-5.36-.01-10.25,2.05-13.93,5.42-5.91-3.78-12.8-5.96-20.14-5.99l-24.76-.12c-.92-2.74-2.4-5.29-4.38-7.45-3.95-4.34-9.59-6.83-15.47-6.83h-.44s-15.96,.61-15.96,.61c-6.34,.25-11.92,3.21-15.63,7.75-3.82-4.04-9.2-6.56-15.16-6.56h-.43s-15.37,.59-15.37,.59c-10.73,.4-19.53,9.17-20.25,19.83-2.29-.87-4.76-1.35-7.35-1.35h-.94s-46.35,3.89-46.35,3.89c-3.64,.3-7,1.56-9.87,3.5-4.26-1.18-8.73-1.77-13.33-1.77-2,0-4.05,.12-6.06,.35-11.13,1.27-21.09,5.59-29.16,12.13-3.67-3.48-8.63-5.63-14.07-5.63l-1.5,.02-13.92,1.92c-2.2,.3-4.27,.94-6.17,1.87-7.03-6.53-16.25-10.43-26.49-10.43-2.16,0-4.35,.18-6.52,.54l-36.76,6.11C8.14,111.54,.4,120.65,.4,131.03v84.14c0,7.59,4.09,14.22,10.16,17.85l-.1,21.9c-.04,7.91,2.97,15.32,8.49,20.87,5.44,5.46,12.69,8.48,20.43,8.48,1.18,0,2.36-.07,3.54-.22l3.59-.44-.36,83.87c-.02,7.96,2.99,15.36,8.47,20.86,5.42,5.43,12.66,8.42,20.39,8.42,1.19,0,2.39-.07,3.6-.22l24.07-2.94c10.58-1.29,19.34-8.06,23.6-17.26,.81,1.09,1.71,2.14,2.69,3.12,5.51,5.52,12.87,8.57,20.74,8.57,.67,0,1.37-.02,2.15-.08l24.14-1.76c11.25-.8,20.76-8.03,25.04-17.96,12.73,9.16,28.24,14.31,45.22,14.31,2.09,0,4.21-.07,6.35-.23,3.49-.26,6.8-1.13,9.85-2.52,1.65,.29,3.34,.44,5.05,.44,.17,0,88.1-1.7,88.1-1.7,1.98-.04,3.93-.27,5.8-.68,1.28,.22,2.58,.36,3.88,.41l25.15,.96c.35,.02,.89,.03,1.25,.03,11.57,0,22.04-6.54,27.2-16.82l11.38,.43c4.72,11.23,15.11,18.48,27.23,18.94l25.2,.97c.33,.01,.76,.02,1.09,.02,2.79,0,5.53-.4,8.15-1.19,3.52,1.91,7.49,3.13,11.76,3.48l24.08,1.98c.85,.07,1.7,.11,2.53,.11,11.92,0,21.97-6.84,26.55-16.89,16.63,15.2,38.38,25.75,58.62,28.36,4.4,.57,8.77,.86,12.98,.86,40.84,0,69.48-27.53,69.65-66.9v-.88c.08-17.53-5.02-39.26-25.78-55.71l10.39-13.31c7.42-9.7,7.96-22.67,1.98-33.01,15.4-6.48,25.14-21.01,25.14-39.71Z"/>
            <path class="cls-12" d="M320.12,76.46h-.44s-15.96,.61-15.96,.61c-6.34,.25-11.92,3.21-15.63,7.75-3.82-4.04-9.2-6.56-15.16-6.56h-.43s-15.37,.59-15.37,.59c-10.73,.4-19.53,9.17-20.25,19.83-2.29-.87-4.76-1.35-7.35-1.35h-.94s-46.35,3.89-46.35,3.89c-3.64,.3-7,1.56-9.87,3.5-4.26-1.18-8.73-1.77-13.33-1.77-2,0-4.05,.12-6.06,.35-11.13,1.27-21.09,5.59-29.16,12.13-3.67-3.48-8.63-5.63-14.07-5.63l-1.5,.02-13.92,1.92c-2.2,.3-4.27,.94-6.17,1.87-7.03-6.53-16.25-10.43-26.49-10.43-2.16,0-4.35,.18-6.52,.54l-36.76,6.11C8.14,111.54,.4,120.65,.4,131.03v84.14c0,7.59,4.09,14.22,10.16,17.85l-.1,21.9c-.04,7.91,2.97,15.32,8.49,20.87,5.44,5.46,12.69,8.48,20.43,8.48,1.18,0,2.36-.07,3.54-.22l3.59-.44-.36,83.87c-.02,7.96,2.99,15.36,8.47,20.86,5.42,5.43,12.66,8.42,20.39,8.42,1.19,0,2.39-.07,3.6-.22l24.07-2.94c10.58-1.29,19.34-8.06,23.6-17.26,.81,1.09,1.71,2.14,2.69,3.12,5.51,5.52,12.87,8.57,20.74,8.57,.67,0,1.37-.02,2.15-.08l24.14-1.76c11.25-.8,20.76-8.03,25.04-17.96,12.73,9.16,28.24,14.31,45.22,14.31,2.09,0,4.21-.07,6.35-.23,3.49-.26,6.8-1.13,9.85-2.52,1.65,.29,3.34,.44,5.05,.44,.17,0,88.1-1.7,88.1-1.7,1.98-.04,3.93-.27,5.8-.68,1.28,.22,2.58,.36,3.88,.41l25.15,.96c.35,.02,.89,.03,1.25,.03,11.57,0,22.04-6.54,27.2-16.82l11.38,.43c4.72,11.23,15.11,18.48,27.23,18.94l25.2,.97c.33,.01,.76,.02,1.09,.02,2.79,0,5.53-.4,8.15-1.19,3.52,1.91,7.49,3.13,11.76,3.48l24.08,1.98c.85,.07,1.7,.11,2.53,.11,11.92,0,21.97-6.84,26.55-16.89,16.63,15.2,38.38,25.75,58.62,28.36,4.4,.57,8.77,.86,12.98,.86,40.84,0,69.48-27.53,69.65-66.9v-.88c.08-17.53-5.02-39.26-25.78-55.71l10.39-13.31c7.42-9.7,7.96-22.67,1.98-33.01,15.4-6.48,25.14-21.01,25.14-39.71v-.51c0-10.9-3.04-24.4-15.03-35.31l4.63-5.83c6.35-8.16,5.81-19.74-1.27-27.56l-.26-.29-.28-.28c-10.06-10.23-21.01-16.22-33.48-18.32-3.23-.54-6.43-.82-9.52-.82-11.54,0-21.46,3.79-28.75,10.37-.72-.18-1.45-.32-2.2-.42l-45.32-6.1-1.46-.19h-1.28c-2.09,0-4.11,.32-6.02,.91-2.41-1.37-5.13-2.29-8.04-2.61l-12.67-1.41-1.2-.13h-1.06c-3.88,0-7.52,1.09-10.61,2.98-5.13-3.24-10.91-5.32-17.02-5.85l-31.66-2.79-.97-.08h-.83c-4.3,0-8.3,1.34-11.61,3.62-6.91-4.1-14.36-6.39-22.24-6.82-1.02-.06-2.02-.09-3.02-.09-8.39,0-15.99,2.04-22.35,5.69-3.63-3.74-8.64-6.15-14.16-6.31l-12.74-.39h-.62c-5.36-.01-10.25,2.05-13.93,5.42-5.91-3.78-12.8-5.96-20.14-5.99l-24.76-.12c-.92-2.74-2.4-5.29-4.38-7.45-3.95-4.34-9.59-6.83-15.47-6.83h0Z"/>
            <g class="cls-25">
              <path class="cls-2" d="M320.12,80.42c4.78,0,9.35,2.02,12.55,5.54,1.59,1.74,2.79,3.78,3.55,6.05,.55,1.6,2.04,2.69,3.73,2.7l24.76,.12c6.33,.03,12.57,1.88,18.03,5.37,.65,.42,1.4,.63,2.13,.63,.97,0,1.93-.36,2.68-1.05,3.08-2.83,7.05-4.38,11.21-4.39h.57s12.71,.39,12.71,.39c4.3,.13,8.36,1.95,11.44,5.12,.76,.79,1.8,1.2,2.83,1.2,.68,0,1.35-.17,1.97-.52,5.89-3.38,12.94-5.17,20.38-5.17,.98,0,1.89,.02,2.8,.08,7.21,.4,14.09,2.51,20.45,6.28,.63,.37,1.32,.55,2.02,.55,.79,0,1.58-.24,2.25-.7,2.76-1.91,6-2.92,9.36-2.92h.67s.78,.06,.78,.06l31.67,2.8c5.34,.47,10.47,2.24,15.26,5.25,.64,.41,1.38,.61,2.11,.61s1.43-.19,2.06-.58c2.57-1.57,5.53-2.4,8.55-2.4h.85s.98,.1,.98,.1l12.67,1.41c2.31,.25,4.51,.97,6.51,2.12,.61,.35,1.28,.52,1.97,.52,.39,0,.78-.06,1.16-.18,1.59-.49,3.22-.74,4.86-.74h1.03s1.18,.16,1.18,.16l45.32,6.1c.59,.08,1.17,.19,1.79,.34,.31,.08,.62,.11,.94,.11,.97,0,1.91-.35,2.65-1.02,6.78-6.12,15.81-9.35,26.1-9.35,2.86,0,5.84,.26,8.86,.76,11.62,1.96,21.87,7.58,31.32,17.19l.21,.21,.21,.24c5.79,6.39,6.24,15.84,1.11,22.45l-4.63,5.82c-1.29,1.63-1.1,3.99,.43,5.39,9.12,8.3,13.74,19.19,13.74,32.38v.51c0,16.59-8.49,30.07-22.72,36.06-1.05,.45-1.86,1.31-2.21,2.39-.36,1.07-.25,2.26,.32,3.24,5.28,9.14,4.61,20.37-1.68,28.59l-10.39,13.31c-1.33,1.72-1.04,4.18,.66,5.53,16.21,12.85,24.38,30.55,24.28,52.59v.89c-.08,18.22-6.43,33.91-18.36,45.38-11.98,11.51-28.35,17.58-47.34,17.59-4.05,0-8.25-.29-12.48-.84-19.33-2.48-40.43-12.71-56.46-27.35-.73-.67-1.69-1.03-2.67-1.03-.26,0-.53,.02-.79,.08-1.24,.25-2.29,1.08-2.81,2.23-4.11,8.99-12.9,14.58-22.96,14.58-.72,0-1.46-.03-2.2-.1l-24.08-1.98c-3.63-.3-7.05-1.31-10.19-3.01-.59-.31-1.24-.48-1.89-.48-.38,0-.76,.05-1.13,.17-2.29,.67-4.66,1.02-7.03,1.02-.3,0-.68,0-.94-.02l-25.19-.98c-10.53-.4-19.62-6.72-23.73-16.51-.59-1.42-1.96-2.36-3.5-2.42l-11.38-.43h-.15c-1.49,0-2.86,.83-3.54,2.18-4.53,9.03-13.6,14.64-23.67,14.64-.3,0-.78,0-1.1-.03l-25.15-.96c-1.1-.04-2.24-.16-3.36-.36-.22-.03-.45-.06-.68-.06-.28,0-.57,.03-.85,.09-1.63,.36-3.32,.57-5.03,.59-.86,.02-86.17,1.67-88.05,1.7-1.46,0-2.92-.13-4.33-.38-.23-.04-.46-.06-.69-.06-.56,0-1.12,.12-1.63,.36-2.7,1.23-5.56,1.96-8.5,2.18-2.01,.14-4.05,.22-6.07,.22-15.73,0-30.57-4.69-42.91-13.57-.68-.49-1.49-.74-2.31-.74-.35,0-.7,.05-1.05,.15-1.15,.32-2.1,1.14-2.58,2.24-3.85,8.93-12.17,14.9-21.69,15.58l-24.14,1.76c-.64,.04-1.23,.06-1.87,.06-6.81,0-13.18-2.62-17.94-7.41-.83-.83-1.62-1.73-2.33-2.68-.75-1.01-1.93-1.59-3.16-1.59-.14,0-.28,0-.42,.02-1.39,.15-2.59,1.01-3.18,2.28-3.83,8.29-11.49,13.89-20.48,14.99l-24.07,2.94c-1.02,.12-2.08,.19-3.12,.19-6.67,0-12.92-2.58-17.59-7.25-4.74-4.75-7.34-11.17-7.32-18.05l.36-83.87c0-1.14-.48-2.22-1.33-2.97-.72-.65-1.67-1-2.62-1-.16,0-.32,0-.48,.03l-3.59,.44c-1,.12-2.03,.19-3.06,.19-6.67,0-12.93-2.6-17.62-7.31-4.76-4.79-7.37-11.2-7.33-18.06l.09-21.9c0-1.39-.73-2.69-1.92-3.41-5.08-3.04-8.23-8.57-8.23-14.45v-84.14c0-8.47,6.32-15.91,14.69-17.3l36.76-6.11c1.95-.32,3.92-.49,5.87-.49,8.84,0,17.29,3.33,23.79,9.38,.74,.69,1.72,1.06,2.69,1.06,.58,0,1.17-.13,1.72-.4,1.58-.76,3.25-1.27,4.99-1.51l13.67-1.89h1.21c4.23-.01,8.26,1.6,11.34,4.53,.76,.72,1.74,1.09,2.73,1.09,.88,0,1.76-.29,2.49-.88,7.69-6.23,17.07-10.13,27.12-11.27,1.86-.21,3.74-.32,5.61-.32,4.22,0,8.35,.55,12.28,1.63,.35,.09,.7,.14,1.05,.14,.78,0,1.55-.24,2.22-.68,2.4-1.62,5.15-2.6,7.99-2.83l46.19-3.87h.77c2.05,0,4.04,.37,5.94,1.09,.46,.17,.93,.26,1.41,.26,.74,0,1.49-.21,2.13-.62,1.06-.67,1.73-1.81,1.81-3.07,.59-8.72,7.82-15.82,16.46-16.15l15.29-.58h.35c4.68,0,9.05,1.89,12.29,5.32,.75,.79,1.79,1.24,2.87,1.24,.05,0,.1,0,.15,0,1.14-.04,2.2-.57,2.92-1.45,3.12-3.81,7.75-6.11,12.72-6.3l15.88-.61h.37m0-3.96h-.44s-15.96,.61-15.96,.61c-6.34,.25-11.92,3.21-15.63,7.75-3.82-4.04-9.2-6.56-15.16-6.56h-.43s-15.37,.59-15.37,.59c-10.73,.4-19.53,9.17-20.25,19.83-2.29-.87-4.76-1.35-7.35-1.35h-.94s-46.35,3.89-46.35,3.89c-3.64,.3-7,1.56-9.87,3.5-4.26-1.18-8.73-1.77-13.33-1.77-2,0-4.05,.12-6.06,.35-11.13,1.27-21.09,5.59-29.16,12.13-3.67-3.48-8.63-5.63-14.07-5.63l-1.5,.02-13.92,1.92c-2.2,.3-4.27,.94-6.17,1.87-7.03-6.53-16.25-10.43-26.49-10.43-2.16,0-4.35,.18-6.52,.54l-36.76,6.11C8.14,111.54,.4,120.65,.4,131.03v84.14c0,7.59,4.09,14.22,10.16,17.85l-.1,21.9c-.04,7.91,2.97,15.32,8.49,20.87,5.44,5.46,12.69,8.48,20.43,8.48,1.18,0,2.36-.07,3.54-.22l3.59-.44-.36,83.87c-.02,7.96,2.99,15.36,8.47,20.86,5.42,5.43,12.66,8.42,20.39,8.42,1.19,0,2.39-.07,3.6-.22l24.07-2.94c10.58-1.29,19.34-8.06,23.6-17.26,.81,1.09,1.71,2.14,2.69,3.12,5.51,5.52,12.87,8.57,20.74,8.57,.67,0,1.37-.02,2.15-.08l24.14-1.76c11.25-.8,20.76-8.03,25.04-17.96,12.73,9.16,28.24,14.31,45.22,14.31,2.09,0,4.21-.07,6.35-.23,3.49-.26,6.8-1.13,9.85-2.52,1.65,.29,3.34,.44,5.05,.44,.17,0,88.1-1.7,88.1-1.7,1.98-.04,3.93-.27,5.8-.68,1.28,.22,2.58,.36,3.88,.41l25.15,.96c.35,.02,.89,.03,1.25,.03,11.57,0,22.04-6.54,27.2-16.82l11.38,.43c4.72,11.23,15.11,18.48,27.23,18.94l25.2,.97c.33,.01,.76,.02,1.09,.02,2.79,0,5.53-.4,8.15-1.19,3.52,1.91,7.49,3.13,11.76,3.48l24.08,1.98c.85,.07,1.7,.11,2.53,.11,11.92,0,21.97-6.84,26.55-16.89,16.63,15.2,38.38,25.75,58.62,28.36,4.4,.57,8.77,.86,12.98,.86,40.84,0,69.48-27.53,69.65-66.9v-.88c.08-17.53-5.02-39.26-25.78-55.71l10.39-13.31c7.42-9.7,7.96-22.67,1.98-33.01,15.4-6.48,25.14-21.01,25.14-39.71v-.51c0-10.9-3.04-24.4-15.03-35.31l4.63-5.83c6.35-8.16,5.81-19.74-1.27-27.56l-.26-.29-.28-.28c-10.06-10.23-21.01-16.22-33.48-18.32-3.23-.54-6.43-.82-9.52-.82-11.54,0-21.46,3.79-28.75,10.37-.72-.18-1.45-.32-2.2-.42l-45.32-6.1-1.46-.19h-1.28c-2.09,0-4.11,.32-6.02,.91-2.41-1.37-5.13-2.29-8.04-2.61l-12.67-1.41-1.2-.13h-1.06c-3.88,0-7.52,1.09-10.61,2.98-5.13-3.24-10.91-5.32-17.02-5.85l-31.66-2.79-.97-.08h-.83c-4.3,0-8.3,1.34-11.61,3.62-6.91-4.1-14.36-6.39-22.24-6.82-1.02-.06-2.02-.09-3.02-.09-8.39,0-15.99,2.04-22.35,5.69-3.63-3.74-8.64-6.15-14.16-6.31l-12.74-.39h-.62c-5.36-.01-10.25,2.05-13.93,5.42-5.91-3.78-12.8-5.96-20.14-5.99l-24.76-.12c-.92-2.74-2.4-5.29-4.38-7.45-3.95-4.34-9.59-6.83-15.47-6.83h0Z"/>
            </g>
          </g>
        </g>
        <g class="cls-10">
          <g>
            <path class="cls-1" d="M39.9,228.24l96.6-11.78c1.74-.21,3.26,1.27,3.25,3.14l-.1,22.89c0,1.87-1.55,3.71-3.28,3.93l-30.79,3.76c-1.15,.14-2.12,1.3-2.13,2.75l-.48,110.87c0,2.08-1.56,3.71-3.48,3.96l-24.06,2.94c-1.92,.23-3.26-1.07-3.25-3.14l.47-110.87c.02-1.46-1.14-2.36-2.29-2.21l-30.6,3.73c-1.93,.24-3.27-1.26-3.26-3.14l.09-22.88c.01-1.87,1.36-3.7,3.29-3.93Zm110.69-13.12l59.93-4.34c21.66-1.57,40.13,18.3,40.02,43.67v1.46c-.1,20.6-11.57,36.61-25.33,44.47-1.36,.71-1.94,2.01-1.56,3.44,3.61,13.87,13.82,22.7,27.35,22.97,1.74,.08,3.09,1.44,3.08,3.52l-.1,22.05c0,1.88-1.37,3.85-3.31,3.99-29.39,2.13-51.54-16.86-57.01-47.23-.19-1.23-1.35-2.39-2.7-2.3l-11.02,.8c-1.36,.1-2.33,1.21-2.33,2.67l-.2,46.17c0,2.08-1.56,3.65-3.3,3.77l-24.17,1.76c-1.94,.13-3.47-1.21-3.47-3.29l.6-139.78c.01-1.87,1.56-3.64,3.5-3.79Zm27.17,64.78c0,1.46,.95,2.42,2.3,2.33l19.92-1.45c10.25-.75,16.86-8.7,16.91-20.36v-1.46c.06-11.65-6.3-18.25-16.74-17.49l-19.92,1.44c-1.36,.1-2.32,1.21-2.33,2.66l-.15,34.32Zm90.41-72.57l87.62-1.69c1.93-.04,3.48,1.6,3.47,3.47l-.1,22.88c0,1.87-1.57,3.57-3.51,3.6l-57.75,1.13c-1.16,.01-2.14,1.07-2.14,2.32l-.11,25.79c0,1.24,.96,2.27,2.12,2.25l41.86-.81c1.94-.03,3.48,1.6,3.48,3.68l-.08,19.96c-.01,1.88-1.56,3.57-3.51,3.61l-41.86,.81c-1.16,.02-2.13,1.08-2.15,2.54l-.1,24.55c0,1.25,.96,2.27,2.12,2.25l57.76-1.12c1.94-.03,3.49,1.6,3.48,3.47l-.1,22.88c-.01,1.87-1.57,3.57-3.51,3.6l-87.61,1.7c-1.74,.03-3.28-1.6-3.28-3.48l.6-139.78c.01-1.87,1.57-3.57,3.3-3.6Zm155.11,.21l4.64,.18c1.74,.07,3.29,1.17,4.06,3.07l54.61,141.7c.77,2.32-.99,4.32-2.93,4.25l-25.18-.96c-1.93-.07-3.47-1.18-4.25-3.07l-4.41-12.03c-.76-1.9-2.31-3.21-4.05-3.28l-41.45-1.6c-1.75-.06-3.3,1.13-4.08,2.97l-4.5,11.69c-.79,1.84-2.34,2.82-4.28,2.74l-25.18-.96c-1.94-.07-3.68-2.22-2.88-4.48l55.8-137.46c.78-1.84,2.33-2.82,4.08-2.76Zm-11.86,101.7c-.39,1.03,.18,2.3,1.34,2.34l24.79,.95c1.16,.04,1.75-1.19,1.36-2.23l-12.25-32.93c-.2-.63-.58-1.06-1.35-1.09-.78-.03-1.17,.36-1.36,.98l-12.54,31.98Zm58.71-99.96l96.97,7.98c1.74,.14,3.28,1.93,3.27,3.8l-.1,22.88c-.01,1.87-1.56,3.41-3.3,3.27l-30.91-2.54c-1.16-.1-2.12,.87-2.13,2.32l-.47,110.87c0,2.08-1.56,3.41-3.49,3.26l-24.15-1.99c-1.92-.16-3.28-1.73-3.27-3.8l.47-110.87c0-1.46-1.14-2.59-2.3-2.68l-30.72-2.53c-1.94-.16-3.28-1.94-3.27-3.81l.1-22.88c0-1.87,1.37-3.43,3.3-3.27Zm191.35,32.5c1.33,1.43,1.71,3.56,.55,5.07l-14.31,18.34c-1.16,1.51-3.47,1.84-5-.03-5.74-6.15-11.5-9.59-18.81-10.54-10.39-1.34-16.36,2.05-16.4,10.16v.62c-.04,8.94,7.25,13.21,26.46,19.65,25.55,8.49,38.18,23.45,38.08,46.54v.83c-.13,28.92-21.73,44.44-53.26,40.38-16.34-2.11-33.81-11.65-45.68-22.97-1.54-1.45-1.71-3.96-.55-5.27l14.51-18.73c.96-1.13,3.27-1.25,4.62,.17,6.89,7.35,17.82,13.75,27.24,14.97,15.57,2.01,21.18-3.72,21.21-11.22v-.82c.04-10.82-9.18-14.09-27.22-20.79-13.64-5.09-36.88-12.24-36.73-46.36v-.83c.11-27.05,19.41-42.24,47.86-38.57,14.04,1.81,26.12,8.36,37.43,19.4Z"/>
          </g>
          <path class="cls-14" d="M39.9,228.24l96.6-11.78c1.74-.21,3.26,1.27,3.25,3.14l-.1,22.89c0,1.87-1.55,3.71-3.28,3.93l-30.79,3.76c-1.15,.14-2.12,1.3-2.13,2.75l-.48,110.87c0,2.08-1.56,3.71-3.48,3.96l-24.06,2.94c-1.92,.23-3.26-1.07-3.25-3.14l.47-110.87c.02-1.46-1.14-2.36-2.29-2.21l-30.6,3.73c-1.93,.24-3.27-1.26-3.26-3.14l.09-22.88c.01-1.87,1.36-3.7,3.29-3.93Zm110.69-13.12l59.93-4.34c21.66-1.57,40.13,18.3,40.02,43.67v1.46c-.1,20.6-11.57,36.61-25.33,44.47-1.36,.71-1.94,2.01-1.56,3.44,3.61,13.87,13.82,22.7,27.35,22.97,1.74,.08,3.09,1.44,3.08,3.52l-.1,22.05c0,1.88-1.37,3.85-3.31,3.99-29.39,2.13-51.54-16.86-57.01-47.23-.19-1.23-1.35-2.39-2.7-2.3l-11.02,.8c-1.36,.1-2.33,1.21-2.33,2.67l-.2,46.17c0,2.08-1.56,3.65-3.3,3.77l-24.17,1.76c-1.94,.13-3.47-1.21-3.47-3.29l.6-139.78c.01-1.87,1.56-3.64,3.5-3.79Zm27.17,64.78c0,1.46,.95,2.42,2.3,2.33l19.92-1.45c10.25-.75,16.86-8.7,16.91-20.36v-1.46c.06-11.65-6.3-18.25-16.74-17.49l-19.92,1.44c-1.36,.1-2.32,1.21-2.33,2.66l-.15,34.32Zm90.41-72.57l87.62-1.69c1.93-.04,3.48,1.6,3.47,3.47l-.1,22.88c0,1.87-1.57,3.57-3.51,3.6l-57.75,1.13c-1.16,.01-2.14,1.07-2.14,2.32l-.11,25.79c0,1.24,.96,2.27,2.12,2.25l41.86-.81c1.94-.03,3.48,1.6,3.48,3.68l-.08,19.96c-.01,1.88-1.56,3.57-3.51,3.61l-41.86,.81c-1.16,.02-2.13,1.08-2.15,2.54l-.1,24.55c0,1.25,.96,2.27,2.12,2.25l57.76-1.12c1.94-.03,3.49,1.6,3.48,3.47l-.1,22.88c-.01,1.87-1.57,3.57-3.51,3.6l-87.61,1.7c-1.74,.03-3.28-1.6-3.28-3.48l.6-139.78c.01-1.87,1.57-3.57,3.3-3.6Zm155.11,.21l4.64,.18c1.74,.07,3.29,1.17,4.06,3.07l54.61,141.7c.77,2.32-.99,4.32-2.93,4.25l-25.18-.96c-1.93-.07-3.47-1.18-4.25-3.07l-4.41-12.03c-.76-1.9-2.31-3.21-4.05-3.28l-41.45-1.6c-1.75-.06-3.3,1.13-4.08,2.97l-4.5,11.69c-.79,1.84-2.34,2.82-4.28,2.74l-25.18-.96c-1.94-.07-3.68-2.22-2.88-4.48l55.8-137.46c.78-1.84,2.33-2.82,4.08-2.76Zm-11.86,101.7c-.39,1.03,.18,2.3,1.34,2.34l24.79,.95c1.16,.04,1.75-1.19,1.36-2.23l-12.25-32.93c-.2-.63-.58-1.06-1.35-1.09-.78-.03-1.17,.36-1.36,.98l-12.54,31.98Zm58.71-99.96l96.97,7.98c1.74,.14,3.28,1.93,3.27,3.8l-.1,22.88c-.01,1.87-1.56,3.41-3.3,3.27l-30.91-2.54c-1.16-.1-2.12,.87-2.13,2.32l-.47,110.87c0,2.08-1.56,3.41-3.49,3.26l-24.15-1.99c-1.92-.16-3.28-1.73-3.27-3.8l.47-110.87c0-1.46-1.14-2.59-2.3-2.68l-30.72-2.53c-1.94-.16-3.28-1.94-3.27-3.81l.1-22.88c0-1.87,1.37-3.43,3.3-3.27Zm191.35,32.5c1.33,1.43,1.71,3.56,.55,5.07l-14.31,18.34c-1.16,1.51-3.47,1.84-5-.03-5.74-6.15-11.5-9.59-18.81-10.54-10.39-1.34-16.36,2.05-16.4,10.16v.62c-.04,8.94,7.25,13.21,26.46,19.65,25.55,8.49,38.18,23.45,38.08,46.54v.83c-.13,28.92-21.73,44.44-53.26,40.38-16.34-2.11-33.81-11.65-45.68-22.97-1.54-1.45-1.71-3.96-.55-5.27l14.51-18.73c.96-1.13,3.27-1.25,4.62,.17,6.89,7.35,17.82,13.75,27.24,14.97,15.57,2.01,21.18-3.72,21.21-11.22v-.82c.04-10.82-9.18-14.09-27.22-20.79-13.64-5.09-36.88-12.24-36.73-46.36v-.83c.11-27.05,19.41-42.24,47.86-38.57,14.04,1.81,26.12,8.36,37.43,19.4Z"/>
        </g>
        <g class="cls-10">
          <g>
            
            <path class="cls-1" d="M21.51,128.55l36.75-6.11c13.28-2.21,24.67,8.67,24.67,23.95v.87c0,12.4-7,22.7-15.41,28.23-.84,.51-1.19,1.32-.95,2.16,2.26,8.14,8.54,12.86,16.84,12.23,1.06-.06,1.9,.68,1.9,1.94v13.28c0,1.13-.83,2.39-2.01,2.59-18.02,2.99-31.66-7.14-35.1-25.09-.12-.73-.83-1.37-1.66-1.22l-6.76,1.12c-.83,.14-1.42,.86-1.42,1.74v27.79c0,1.25-.95,2.29-2.01,2.46l-14.82,2.46c-1.19,.2-2.13-.51-2.13-1.77v-84.14c0-1.13,.94-2.29,2.13-2.49Zm16.84,37.39c0,.88,.59,1.41,1.42,1.27l12.21-2.03c6.28-1.05,10.31-6.22,10.31-13.23v-.88c0-7.01-3.91-10.62-10.31-9.55l-12.21,2.03c-.83,.14-1.42,.86-1.42,1.74v20.66Zm58.57-35.4l12.63-1.75c.9-.13,1.7,.61,1.7,1.56v70.85c0,.95-.8,1.91-1.7,2.03l-12.63,1.75c-.9,.12-1.71-.61-1.71-1.56v-70.85c0-.95,.81-1.9,1.71-2.03Zm24.63,30.77c0-20.99,14.07-36.93,33.58-39.16,7.34-.83,14.58,.66,20.41,4.63,.9,.64,.8,1.81,.3,2.6l-7.14,10.63c-.6,.81-1.81,1.26-2.61,.51-2.91-2.3-7.04-3.2-10.96-2.75-10.96,1.25-17.29,9.77-17.29,21.69v6.11c0,11.81,6.33,18.78,17.29,17.54,3.92-.45,7.74-2.15,10.85-5.14,.8-.83,1.92-.85,2.52-.18l7.34,9.17c.6,.68,.5,1.95-.3,2.68-5.83,5.31-12.47,8.17-20.41,9.07-19.81,2.26-33.58-10.41-33.58-31.28v-6.11Zm62.26-41.17l45.58-3.82c1-.08,1.81,.69,1.81,1.64v11.6c0,.95-.81,1.86-1.81,1.95l-30.06,2.51c-.6,.06-1.11,.63-1.11,1.25v13.08c0,.63,.5,1.12,1.11,1.07l21.78-1.83c1.01-.08,1.82,.7,1.82,1.75v10.12c0,.95-.8,1.86-1.82,1.95l-21.78,1.83c-.6,.05-1.11,.62-1.11,1.36v12.44c0,.63,.5,1.11,1.11,1.06l30.06-2.52c1-.08,1.81,.69,1.81,1.64v11.6c0,.95-.81,1.86-1.81,1.94l-45.58,3.81c-.91,.09-1.71-.69-1.71-1.64V122.07c0-.95,.8-1.86,1.71-1.94Zm74.05-22.31l15.01-.58c1.08-.04,2.04,.95,2.04,2.12v34.43c0,.65,.48,1.4,1.32,1.37l.48-.02c15.49-.59,24.49-18.21,25.46-34.76l.12-2.07c0-1.29,.96-2.23,2.17-2.28l15.6-.6c1.21-.04,2.17,.96,2.04,2.25l-.12,2.72c-1.08,16.94-8.17,31.65-19.21,40.97-.6,.54-.96,1.33-.48,2.21l22.69,39.37c.72,1.26-.12,3.35-1.8,3.42l-17.41,.67c-.72,.02-1.44-.33-1.8-1.1l-18.37-34.24c-.48-.88-1.32-1.11-2.16-.95-2.17,.46-4.45,.68-6.73,.77l-.48,.02c-.71,.03-1.32,.7-1.32,1.6v32.89c0,1.16-.96,2.24-2.04,2.27l-15.01,.57c-1.07,.05-2.04-.95-2.04-2.11V100.1c0-1.16,.97-2.23,2.04-2.27Zm75.42,11.86l31.38,.15c11.33,.05,21.04,11.17,21.04,24.42v.76c0,10.75-5.97,18.65-13.15,22.2-.71,.33-1.01,.97-.81,1.73,1.92,7.39,7.29,12.42,14.37,13.1,.91,.11,1.62,.88,1.62,1.96v11.51c0,.98-.7,1.95-1.72,1.94-15.39-.07-27.02-10.87-29.95-26.96-.1-.65-.71-1.31-1.42-1.31l-5.77-.03c-.7,0-1.21,.54-1.21,1.3v24.11c0,1.08-.81,1.84-1.72,1.83l-12.65-.05c-1.01,0-1.82-.77-1.82-1.86V111.53c0-.97,.81-1.85,1.82-1.84Zm14.37,34.92c0,.76,.51,1.31,1.21,1.31l10.42,.04c5.37,.03,8.81-3.86,8.81-9.95v-.75c0-6.09-3.34-9.79-8.81-9.82l-10.42-.04c-.7,0-1.21,.53-1.21,1.29v17.92Zm51.19-34.21l12.74,.39c.91,.03,1.72,.92,1.72,1.9v72.97c0,.97-.8,1.82-1.72,1.79l-12.74-.38c-.91-.03-1.72-.93-1.72-1.9V112.2c0-.98,.81-1.83,1.72-1.79Zm71.5,9.78c.7,.69,.91,1.79,.3,2.62l-7.48,10.12c-.6,.83-1.82,1.09-2.62,.17-3.03-2.99-6.06-4.57-9.9-4.78-5.45-.3-8.59,1.69-8.59,5.92v.32c0,4.67,3.84,6.63,13.95,9.25,13.44,3.46,20.1,10.79,20.1,22.84v.43c0,15.1-11.32,24.02-27.89,23.1-8.58-.48-17.78-4.8-24.05-10.25-.8-.7-.91-2-.3-2.73l7.58-10.33c.5-.63,1.72-.77,2.42-.08,3.64,3.57,9.4,6.49,14.35,6.77,8.19,.46,11.11-2.75,11.11-6.66v-.43c0-5.65-4.85-7-14.35-9.81-7.17-2.14-19.4-4.99-19.4-22.8v-.44c0-14.11,10.1-22.78,25.06-21.95,7.38,.41,13.74,3.37,19.7,8.7Zm15.35-5.46l31.66,2.79c11.39,1.01,20.96,12.93,20.96,26.18v.76c0,14.23-9.37,24.15-21.97,23.05l-15.12-1.33c-.6-.05-1.21,.43-1.21,1.09v23.56c0,1.09-.7,1.79-1.71,1.7l-12.6-1.12c-1.01-.09-1.71-.9-1.71-2V116.42c0-.98,.71-1.79,1.71-1.7Zm14.31,18.21v17.7c0,.76,.61,1.36,1.21,1.41l10.18,.89c5.34,.47,8.77-3.03,8.77-9v-.76c0-6.09-3.43-10.08-8.87-10.56l-10.08-.89c-.6-.05-1.21,.44-1.21,1.2Zm46.8-12.45l12.66,1.41c.91,.1,1.72,1.06,1.72,2.03v72.97c0,.98-.81,1.76-1.72,1.66l-12.66-1.41c-.91-.1-1.71-1.06-1.71-2.03V122.12c0-.98,.8-1.76,1.71-1.65Zm29.01,3.25l45.33,6.1c1.02,.14,1.81,1.12,1.81,2.08v11.95c0,.98-.8,1.74-1.81,1.6l-29.88-4.03c-.59-.08-1.1,.4-1.1,1.05v13.47c0,.65,.5,1.26,1.1,1.34l21.67,2.91c1,.13,1.8,1.11,1.8,2.2v10.42c0,.98-.81,1.74-1.8,1.61l-21.67-2.92c-.59-.08-1.1,.39-1.1,1.15v12.82c0,.65,.5,1.26,1.1,1.34l29.88,4.03c1.02,.13,1.81,1.11,1.81,2.09v11.94c0,.98-.8,1.74-1.81,1.6l-45.33-6.1c-.9-.11-1.7-1.09-1.7-2.08V125.33c0-.98,.8-1.74,1.7-1.61Zm108.29,9.8c.82,.92,1.07,2.25,.36,3.15l-8.77,11.04c-.71,.91-2.13,1.06-3.09-.13-3.55-3.95-7.11-6.23-11.61-6.98-6.4-1.08-10.07,.88-10.07,5.91v.39c0,5.54,4.5,8.37,16.35,12.81,15.76,5.87,23.58,15.44,23.58,29.76v.51c0,17.93-13.27,27.04-32.7,23.77-10.07-1.69-20.86-8.03-28.2-15.33-.95-.93-1.06-2.5-.35-3.29l8.88-11.26c.59-.67,2.02-.7,2.84,.22,4.27,4.71,11.02,8.94,16.83,9.91,9.6,1.62,13.03-1.79,13.03-6.44v-.51c0-6.71-5.68-8.95-16.82-13.54-8.41-3.48-22.75-8.47-22.75-29.62v-.51c0-16.77,11.86-25.74,29.39-22.78,8.65,1.45,16.12,5.81,23.11,12.91Z"/>
          </g>
          <path class="cls-13" d="M21.51,128.55l36.75-6.11c13.28-2.21,24.67,8.67,24.67,23.95v.87c0,12.4-7,22.7-15.41,28.23-.84,.51-1.19,1.32-.95,2.16,2.26,8.14,8.54,12.86,16.84,12.23,1.06-.06,1.9,.68,1.9,1.94v13.28c0,1.13-.83,2.39-2.01,2.59-18.02,2.99-31.66-7.14-35.1-25.09-.12-.73-.83-1.37-1.66-1.22l-6.76,1.12c-.83,.14-1.42,.86-1.42,1.74v27.79c0,1.25-.95,2.29-2.01,2.46l-14.82,2.46c-1.19,.2-2.13-.51-2.13-1.77v-84.14c0-1.13,.94-2.29,2.13-2.49Zm16.84,37.39c0,.88,.59,1.41,1.42,1.27l12.21-2.03c6.28-1.05,10.31-6.22,10.31-13.23v-.88c0-7.01-3.91-10.62-10.31-9.55l-12.21,2.03c-.83,.14-1.42,.86-1.42,1.74v20.66Zm58.57-35.4l12.63-1.75c.9-.13,1.7,.61,1.7,1.56v70.85c0,.95-.8,1.91-1.7,2.03l-12.63,1.75c-.9,.12-1.71-.61-1.71-1.56v-70.85c0-.95,.81-1.9,1.71-2.03Zm24.63,30.77c0-20.99,14.07-36.93,33.58-39.16,7.34-.83,14.58,.66,20.41,4.63,.9,.64,.8,1.81,.3,2.6l-7.14,10.63c-.6,.81-1.81,1.26-2.61,.51-2.91-2.3-7.04-3.2-10.96-2.75-10.96,1.25-17.29,9.77-17.29,21.69v6.11c0,11.81,6.33,18.78,17.29,17.54,3.92-.45,7.74-2.15,10.85-5.14,.8-.83,1.92-.85,2.52-.18l7.34,9.17c.6,.68,.5,1.95-.3,2.68-5.83,5.31-12.47,8.17-20.41,9.07-19.81,2.26-33.58-10.41-33.58-31.28v-6.11Zm62.26-41.17l45.58-3.82c1-.08,1.81,.69,1.81,1.64v11.6c0,.95-.81,1.86-1.81,1.95l-30.06,2.51c-.6,.06-1.11,.63-1.11,1.25v13.08c0,.63,.5,1.12,1.11,1.07l21.78-1.83c1.01-.08,1.82,.7,1.82,1.75v10.12c0,.95-.8,1.86-1.82,1.95l-21.78,1.83c-.6,.05-1.11,.62-1.11,1.36v12.44c0,.63,.5,1.11,1.11,1.06l30.06-2.52c1-.08,1.81,.69,1.81,1.64v11.6c0,.95-.81,1.86-1.81,1.94l-45.58,3.81c-.91,.09-1.71-.69-1.71-1.64V122.07c0-.95,.8-1.86,1.71-1.94Zm74.05-22.31l15.01-.58c1.08-.04,2.04,.95,2.04,2.12v34.43c0,.65,.48,1.4,1.32,1.37l.48-.02c15.49-.59,24.49-18.21,25.46-34.76l.12-2.07c0-1.29,.96-2.23,2.17-2.28l15.6-.6c1.21-.04,2.17,.96,2.04,2.25l-.12,2.72c-1.08,16.94-8.17,31.65-19.21,40.97-.6,.54-.96,1.33-.48,2.21l22.69,39.37c.72,1.26-.12,3.35-1.8,3.42l-17.41,.67c-.72,.02-1.44-.33-1.8-1.1l-18.37-34.24c-.48-.88-1.32-1.11-2.16-.95-2.17,.46-4.45,.68-6.73,.77l-.48,.02c-.71,.03-1.32,.7-1.32,1.6v32.89c0,1.16-.96,2.24-2.04,2.27l-15.01,.57c-1.07,.05-2.04-.95-2.04-2.11V100.1c0-1.16,.97-2.23,2.04-2.27Zm75.42,11.86l31.38,.15c11.33,.05,21.04,11.17,21.04,24.42v.76c0,10.75-5.97,18.65-13.15,22.2-.71,.33-1.01,.97-.81,1.73,1.92,7.39,7.29,12.42,14.37,13.1,.91,.11,1.62,.88,1.62,1.96v11.51c0,.98-.7,1.95-1.72,1.94-15.39-.07-27.02-10.87-29.95-26.96-.1-.65-.71-1.31-1.42-1.31l-5.77-.03c-.7,0-1.21,.54-1.21,1.3v24.11c0,1.08-.81,1.84-1.72,1.83l-12.65-.05c-1.01,0-1.82-.77-1.82-1.86V111.53c0-.97,.81-1.85,1.82-1.84Zm14.37,34.92c0,.76,.51,1.31,1.21,1.31l10.42,.04c5.37,.03,8.81-3.86,8.81-9.95v-.75c0-6.09-3.34-9.79-8.81-9.82l-10.42-.04c-.7,0-1.21,.53-1.21,1.29v17.92Zm51.19-34.21l12.74,.39c.91,.03,1.72,.92,1.72,1.9v72.97c0,.97-.8,1.82-1.72,1.79l-12.74-.38c-.91-.03-1.72-.93-1.72-1.9V112.2c0-.98,.81-1.83,1.72-1.79Zm71.5,9.78c.7,.69,.91,1.79,.3,2.62l-7.48,10.12c-.6,.83-1.82,1.09-2.62,.17-3.03-2.99-6.06-4.57-9.9-4.78-5.45-.3-8.59,1.69-8.59,5.92v.32c0,4.67,3.84,6.63,13.95,9.25,13.44,3.46,20.1,10.79,20.1,22.84v.43c0,15.1-11.32,24.02-27.89,23.1-8.58-.48-17.78-4.8-24.05-10.25-.8-.7-.91-2-.3-2.73l7.58-10.33c.5-.63,1.72-.77,2.42-.08,3.64,3.57,9.4,6.49,14.35,6.77,8.19,.46,11.11-2.75,11.11-6.66v-.43c0-5.65-4.85-7-14.35-9.81-7.17-2.14-19.4-4.99-19.4-22.8v-.44c0-14.11,10.1-22.78,25.06-21.95,7.38,.41,13.74,3.37,19.7,8.7Zm15.35-5.46l31.66,2.79c11.39,1.01,20.96,12.93,20.96,26.18v.76c0,14.23-9.37,24.15-21.97,23.05l-15.12-1.33c-.6-.05-1.21,.43-1.21,1.09v23.56c0,1.09-.7,1.79-1.71,1.7l-12.6-1.12c-1.01-.09-1.71-.9-1.71-2V116.42c0-.98,.71-1.79,1.71-1.7Zm14.31,18.21v17.7c0,.76,.61,1.36,1.21,1.41l10.18,.89c5.34,.47,8.77-3.03,8.77-9v-.76c0-6.09-3.43-10.08-8.87-10.56l-10.08-.89c-.6-.05-1.21,.44-1.21,1.2Zm46.8-12.45l12.66,1.41c.91,.1,1.72,1.06,1.72,2.03v72.97c0,.98-.81,1.76-1.72,1.66l-12.66-1.41c-.91-.1-1.71-1.06-1.71-2.03V122.12c0-.98,.8-1.76,1.71-1.65Zm29.01,3.25l45.33,6.1c1.02,.14,1.81,1.12,1.81,2.08v11.95c0,.98-.8,1.74-1.81,1.6l-29.88-4.03c-.59-.08-1.1,.4-1.1,1.05v13.47c0,.65,.5,1.26,1.1,1.34l21.67,2.91c1,.13,1.8,1.11,1.8,2.2v10.42c0,.98-.81,1.74-1.8,1.61l-21.67-2.92c-.59-.08-1.1,.39-1.1,1.15v12.82c0,.65,.5,1.26,1.1,1.34l29.88,4.03c1.02,.13,1.81,1.11,1.81,2.09v11.94c0,.98-.8,1.74-1.81,1.6l-45.33-6.1c-.9-.11-1.7-1.09-1.7-2.08V125.33c0-.98,.8-1.74,1.7-1.61Zm108.29,9.8c.82,.92,1.07,2.25,.36,3.15l-8.77,11.04c-.71,.91-2.13,1.06-3.09-.13-3.55-3.95-7.11-6.23-11.61-6.98-6.4-1.08-10.07,.88-10.07,5.91v.39c0,5.54,4.5,8.37,16.35,12.81,15.76,5.87,23.58,15.44,23.58,29.76v.51c0,17.93-13.27,27.04-32.7,23.77-10.07-1.69-20.86-8.03-28.2-15.33-.95-.93-1.06-2.5-.35-3.29l8.88-11.26c.59-.67,2.02-.7,2.84,.22,4.27,4.71,11.02,8.94,16.83,9.91,9.6,1.62,13.03-1.79,13.03-6.44v-.51c0-6.71-5.68-8.95-16.82-13.54-8.41-3.48-22.75-8.47-22.75-29.62v-.51c0-16.77,11.86-25.74,29.39-22.78,8.65,1.45,16.12,5.81,23.11,12.91Z"/>
        </g>
        <path class="cls-3" d="M39.9,228.24l96.6-11.78c1.74-.21,3.26,1.27,3.25,3.14l-.1,22.89c0,1.87-1.55,3.71-3.28,3.93l-30.79,3.76c-1.15,.14-2.12,1.3-2.13,2.75l-.48,110.87c0,2.08-1.56,3.71-3.48,3.96l-24.06,2.94c-1.92,.23-3.26-1.07-3.25-3.14l.47-110.87c.02-1.46-1.14-2.36-2.29-2.21l-30.6,3.73c-1.93,.24-3.27-1.26-3.26-3.14l.09-22.88c.01-1.87,1.36-3.7,3.29-3.93Zm110.69-13.12l59.93-4.34c21.66-1.57,40.13,18.3,40.02,43.67v1.46c-.1,20.6-11.57,36.61-25.33,44.47-1.36,.71-1.94,2.01-1.56,3.44,3.61,13.87,13.82,22.7,27.35,22.97,1.74,.08,3.09,1.44,3.08,3.52l-.1,22.05c0,1.88-1.37,3.85-3.31,3.99-29.39,2.13-51.54-16.86-57.01-47.23-.19-1.23-1.35-2.39-2.7-2.3l-11.02,.8c-1.36,.1-2.33,1.21-2.33,2.67l-.2,46.17c0,2.08-1.56,3.65-3.3,3.77l-24.17,1.76c-1.94,.13-3.47-1.21-3.47-3.29l.6-139.78c.01-1.87,1.56-3.64,3.5-3.79Zm27.17,64.78c0,1.46,.95,2.42,2.3,2.33l19.92-1.45c10.25-.75,16.86-8.7,16.91-20.36v-1.46c.06-11.65-6.3-18.25-16.74-17.49l-19.92,1.44c-1.36,.1-2.32,1.21-2.33,2.66l-.15,34.32Zm90.41-72.57l87.62-1.69c1.93-.04,3.48,1.6,3.47,3.47l-.1,22.88c0,1.87-1.57,3.57-3.51,3.6l-57.75,1.13c-1.16,.01-2.14,1.07-2.14,2.32l-.11,25.79c0,1.24,.96,2.27,2.12,2.25l41.86-.81c1.94-.03,3.48,1.6,3.48,3.68l-.08,19.96c-.01,1.88-1.56,3.57-3.51,3.61l-41.86,.81c-1.16,.02-2.13,1.08-2.15,2.54l-.1,24.55c0,1.25,.96,2.27,2.12,2.25l57.76-1.12c1.94-.03,3.49,1.6,3.48,3.47l-.1,22.88c-.01,1.87-1.57,3.57-3.51,3.6l-87.61,1.7c-1.74,.03-3.28-1.6-3.28-3.48l.6-139.78c.01-1.87,1.57-3.57,3.3-3.6Zm155.11,.21l4.64,.18c1.74,.07,3.29,1.17,4.06,3.07l54.61,141.7c.77,2.32-.99,4.32-2.93,4.25l-25.18-.96c-1.93-.07-3.47-1.18-4.25-3.07l-4.41-12.03c-.76-1.9-2.31-3.21-4.05-3.28l-41.45-1.6c-1.75-.06-3.3,1.13-4.08,2.97l-4.5,11.69c-.79,1.84-2.34,2.82-4.28,2.74l-25.18-.96c-1.94-.07-3.68-2.22-2.88-4.48l55.8-137.46c.78-1.84,2.33-2.82,4.08-2.76Zm-11.86,101.7c-.39,1.03,.18,2.3,1.34,2.34l24.79,.95c1.16,.04,1.75-1.19,1.36-2.23l-12.25-32.93c-.2-.63-.58-1.06-1.35-1.09-.78-.03-1.17,.36-1.36,.98l-12.54,31.98Zm58.71-99.96l96.97,7.98c1.74,.14,3.28,1.93,3.27,3.8l-.1,22.88c-.01,1.87-1.56,3.41-3.3,3.27l-30.91-2.54c-1.16-.1-2.12,.87-2.13,2.32l-.47,110.87c0,2.08-1.56,3.41-3.49,3.26l-24.15-1.99c-1.92-.16-3.28-1.73-3.27-3.8l.47-110.87c0-1.46-1.14-2.59-2.3-2.68l-30.72-2.53c-1.94-.16-3.28-1.94-3.27-3.81l.1-22.88c0-1.87,1.37-3.43,3.3-3.27Zm191.35,32.5c1.33,1.43,1.71,3.56,.55,5.07l-14.31,18.34c-1.16,1.51-3.47,1.84-5-.03-5.74-6.15-11.5-9.59-18.81-10.54-10.39-1.34-16.36,2.05-16.4,10.16v.62c-.04,8.94,7.25,13.21,26.46,19.65,25.55,8.49,38.18,23.45,38.08,46.54v.83c-.13,28.92-21.73,44.44-53.26,40.38-16.34-2.11-33.81-11.65-45.68-22.97-1.54-1.45-1.71-3.96-.55-5.27l14.51-18.73c.96-1.13,3.27-1.25,4.62,.17,6.89,7.35,17.82,13.75,27.24,14.97,15.57,2.01,21.18-3.72,21.21-11.22v-.82c.04-10.82-9.18-14.09-27.22-20.79-13.64-5.09-36.88-12.24-36.73-46.36v-.83c.11-27.05,19.41-42.24,47.86-38.57,14.04,1.81,26.12,8.36,37.43,19.4Z"/>
        <path class="cls-3" d="M21.51,128.55l36.75-6.11c13.28-2.21,24.67,8.67,24.67,23.95v.87c0,12.4-7,22.7-15.41,28.23-.84,.51-1.19,1.32-.95,2.16,2.26,8.14,8.54,12.86,16.84,12.23,1.06-.06,1.9,.68,1.9,1.94v13.28c0,1.13-.83,2.39-2.01,2.59-18.02,2.99-31.66-7.14-35.1-25.09-.12-.73-.83-1.37-1.66-1.22l-6.76,1.12c-.83,.14-1.42,.86-1.42,1.74v27.79c0,1.25-.95,2.29-2.01,2.46l-14.82,2.46c-1.19,.2-2.13-.51-2.13-1.77v-84.14c0-1.13,.94-2.29,2.13-2.49Zm16.84,37.39c0,.88,.59,1.41,1.42,1.27l12.21-2.03c6.28-1.05,10.31-6.22,10.31-13.23v-.88c0-7.01-3.91-10.62-10.31-9.55l-12.21,2.03c-.83,.14-1.42,.86-1.42,1.74v20.66Zm58.57-35.4l12.63-1.75c.9-.13,1.7,.61,1.7,1.56v70.85c0,.95-.8,1.91-1.7,2.03l-12.63,1.75c-.9,.12-1.71-.61-1.71-1.56v-70.85c0-.95,.81-1.9,1.71-2.03Zm24.63,30.77c0-20.99,14.07-36.93,33.58-39.16,7.34-.83,14.58,.66,20.41,4.63,.9,.64,.8,1.81,.3,2.6l-7.14,10.63c-.6,.81-1.81,1.26-2.61,.51-2.91-2.3-7.04-3.2-10.96-2.75-10.96,1.25-17.29,9.77-17.29,21.69v6.11c0,11.81,6.33,18.78,17.29,17.54,3.92-.45,7.74-2.15,10.85-5.14,.8-.83,1.92-.85,2.52-.18l7.34,9.17c.6,.68,.5,1.95-.3,2.68-5.83,5.31-12.47,8.17-20.41,9.07-19.81,2.26-33.58-10.41-33.58-31.28v-6.11Zm62.26-41.17l45.58-3.82c1-.08,1.81,.69,1.81,1.64v11.6c0,.95-.81,1.86-1.81,1.95l-30.06,2.51c-.6,.06-1.11,.63-1.11,1.25v13.08c0,.63,.5,1.12,1.11,1.07l21.78-1.83c1.01-.08,1.82,.7,1.82,1.75v10.12c0,.95-.8,1.86-1.82,1.95l-21.78,1.83c-.6,.05-1.11,.62-1.11,1.36v12.44c0,.63,.5,1.11,1.11,1.06l30.06-2.52c1-.08,1.81,.69,1.81,1.64v11.6c0,.95-.81,1.86-1.81,1.94l-45.58,3.81c-.91,.09-1.71-.69-1.71-1.64V122.07c0-.95,.8-1.86,1.71-1.94Zm74.05-22.31l15.01-.58c1.08-.04,2.04,.95,2.04,2.12v34.43c0,.65,.48,1.4,1.32,1.37l.48-.02c15.49-.59,24.49-18.21,25.46-34.76l.12-2.07c0-1.29,.96-2.23,2.17-2.28l15.6-.6c1.21-.04,2.17,.96,2.04,2.25l-.12,2.72c-1.08,16.94-8.17,31.65-19.21,40.97-.6,.54-.96,1.33-.48,2.21l22.69,39.37c.72,1.26-.12,3.35-1.8,3.42l-17.41,.67c-.72,.02-1.44-.33-1.8-1.1l-18.37-34.24c-.48-.88-1.32-1.11-2.16-.95-2.17,.46-4.45,.68-6.73,.77l-.48,.02c-.71,.03-1.32,.7-1.32,1.6v32.89c0,1.16-.96,2.24-2.04,2.27l-15.01,.57c-1.07,.05-2.04-.95-2.04-2.11V100.1c0-1.16,.97-2.23,2.04-2.27Zm75.42,11.86l31.38,.15c11.33,.05,21.04,11.17,21.04,24.42v.76c0,10.75-5.97,18.65-13.15,22.2-.71,.33-1.01,.97-.81,1.73,1.92,7.39,7.29,12.42,14.37,13.1,.91,.11,1.62,.88,1.62,1.96v11.51c0,.98-.7,1.95-1.72,1.94-15.39-.07-27.02-10.87-29.95-26.96-.1-.65-.71-1.31-1.42-1.31l-5.77-.03c-.7,0-1.21,.54-1.21,1.3v24.11c0,1.08-.81,1.84-1.72,1.83l-12.65-.05c-1.01,0-1.82-.77-1.82-1.86V111.53c0-.97,.81-1.85,1.82-1.84Zm14.37,34.92c0,.76,.51,1.31,1.21,1.31l10.42,.04c5.37,.03,8.81-3.86,8.81-9.95v-.75c0-6.09-3.34-9.79-8.81-9.82l-10.42-.04c-.7,0-1.21,.53-1.21,1.29v17.92Zm51.19-34.21l12.74,.39c.91,.03,1.72,.92,1.72,1.9v72.97c0,.97-.8,1.82-1.72,1.79l-12.74-.38c-.91-.03-1.72-.93-1.72-1.9V112.2c0-.98,.81-1.83,1.72-1.79Zm71.5,9.78c.7,.69,.91,1.79,.3,2.62l-7.48,10.12c-.6,.83-1.82,1.09-2.62,.17-3.03-2.99-6.06-4.57-9.9-4.78-5.45-.3-8.59,1.69-8.59,5.92v.32c0,4.67,3.84,6.63,13.95,9.25,13.44,3.46,20.1,10.79,20.1,22.84v.43c0,15.1-11.32,24.02-27.89,23.1-8.58-.48-17.78-4.8-24.05-10.25-.8-.7-.91-2-.3-2.73l7.58-10.33c.5-.63,1.72-.77,2.42-.08,3.64,3.57,9.4,6.49,14.35,6.77,8.19,.46,11.11-2.75,11.11-6.66v-.43c0-5.65-4.85-7-14.35-9.81-7.17-2.14-19.4-4.99-19.4-22.8v-.44c0-14.11,10.1-22.78,25.06-21.95,7.38,.41,13.74,3.37,19.7,8.7Zm15.35-5.46l31.66,2.79c11.39,1.01,20.96,12.93,20.96,26.18v.76c0,14.23-9.37,24.15-21.97,23.05l-15.12-1.33c-.6-.05-1.21,.43-1.21,1.09v23.56c0,1.09-.7,1.79-1.71,1.7l-12.6-1.12c-1.01-.09-1.71-.9-1.71-2V116.42c0-.98,.71-1.79,1.71-1.7Zm14.31,18.21v17.7c0,.76,.61,1.36,1.21,1.41l10.18,.89c5.34,.47,8.77-3.03,8.77-9v-.76c0-6.09-3.43-10.08-8.87-10.56l-10.08-.89c-.6-.05-1.21,.44-1.21,1.2Zm46.8-12.45l12.66,1.41c.91,.1,1.72,1.06,1.72,2.03v72.97c0,.98-.81,1.76-1.72,1.66l-12.66-1.41c-.91-.1-1.71-1.06-1.71-2.03V122.12c0-.98,.8-1.76,1.71-1.65Zm29.01,3.25l45.33,6.1c1.02,.14,1.81,1.12,1.81,2.08v11.95c0,.98-.8,1.74-1.81,1.6l-29.88-4.03c-.59-.08-1.1,.4-1.1,1.05v13.47c0,.65,.5,1.26,1.1,1.34l21.67,2.91c1,.13,1.8,1.11,1.8,2.2v10.42c0,.98-.81,1.74-1.8,1.61l-21.67-2.92c-.59-.08-1.1,.39-1.1,1.15v12.82c0,.65,.5,1.26,1.1,1.34l29.88,4.03c1.02,.13,1.81,1.11,1.81,2.09v11.94c0,.98-.8,1.74-1.81,1.6l-45.33-6.1c-.9-.11-1.7-1.09-1.7-2.08V125.33c0-.98,.8-1.74,1.7-1.61Zm108.29,9.8c.82,.92,1.07,2.25,.36,3.15l-8.77,11.04c-.71,.91-2.13,1.06-3.09-.13-3.55-3.95-7.11-6.23-11.61-6.98-6.4-1.08-10.07,.88-10.07,5.91v.39c0,5.54,4.5,8.37,16.35,12.81,15.76,5.87,23.58,15.44,23.58,29.76v.51c0,17.93-13.27,27.04-32.7,23.77-10.07-1.69-20.86-8.03-28.2-15.33-.95-.93-1.06-2.5-.35-3.29l8.88-11.26c.59-.67,2.02-.7,2.84,.22,4.27,4.71,11.02,8.94,16.83,9.91,9.6,1.62,13.03-1.79,13.03-6.44v-.51c0-6.71-5.68-8.95-16.82-13.54-8.41-3.48-22.75-8.47-22.75-29.62v-.51c0-16.77,11.86-25.74,29.39-22.78,8.65,1.45,16.12,5.81,23.11,12.91Z"/>
        <path class="cls-2" d="M39.9,228.24l96.6-11.78c1.74-.21,3.26,1.27,3.25,3.14l-.1,22.89c0,1.87-1.55,3.71-3.28,3.93l-30.79,3.76c-1.15,.14-2.12,1.3-2.13,2.75l-.48,110.87c0,2.08-1.56,3.71-3.48,3.96l-24.06,2.94c-1.92,.23-3.26-1.07-3.25-3.14l.47-110.87c.02-1.46-1.14-2.36-2.29-2.21l-30.6,3.73c-1.93,.24-3.27-1.26-3.26-3.14l.09-22.88c.01-1.87,1.36-3.7,3.29-3.93Zm110.69-13.12l59.93-4.34c21.66-1.57,40.13,18.3,40.02,43.67v1.46c-.1,20.6-11.57,36.61-25.33,44.47-1.36,.71-1.94,2.01-1.56,3.44,3.61,13.87,13.82,22.7,27.35,22.97,1.74,.08,3.09,1.44,3.08,3.52l-.1,22.05c0,1.88-1.37,3.85-3.31,3.99-29.39,2.13-51.54-16.86-57.01-47.23-.19-1.23-1.35-2.39-2.7-2.3l-11.02,.8c-1.36,.1-2.33,1.21-2.33,2.67l-.2,46.17c0,2.08-1.56,3.65-3.3,3.77l-24.17,1.76c-1.94,.13-3.47-1.21-3.47-3.29l.6-139.78c.01-1.87,1.56-3.64,3.5-3.79Zm27.17,64.78c0,1.46,.95,2.42,2.3,2.33l19.92-1.45c10.25-.75,16.86-8.7,16.91-20.36v-1.46c.06-11.65-6.3-18.25-16.74-17.49l-19.92,1.44c-1.36,.1-2.32,1.21-2.33,2.66l-.15,34.32Zm90.41-72.57l87.62-1.69c1.93-.04,3.48,1.6,3.47,3.47l-.1,22.88c0,1.87-1.57,3.57-3.51,3.6l-57.75,1.13c-1.16,.01-2.14,1.07-2.14,2.32l-.11,25.79c0,1.24,.96,2.27,2.12,2.25l41.86-.81c1.94-.03,3.48,1.6,3.48,3.68l-.08,19.96c-.01,1.88-1.56,3.57-3.51,3.61l-41.86,.81c-1.16,.02-2.13,1.08-2.15,2.54l-.1,24.55c0,1.25,.96,2.27,2.12,2.25l57.76-1.12c1.94-.03,3.49,1.6,3.48,3.47l-.1,22.88c-.01,1.87-1.57,3.57-3.51,3.6l-87.61,1.7c-1.74,.03-3.28-1.6-3.28-3.48l.6-139.78c.01-1.87,1.57-3.57,3.3-3.6Zm155.11,.21l4.64,.18c1.74,.07,3.29,1.17,4.06,3.07l54.61,141.7c.77,2.32-.99,4.32-2.93,4.25l-25.18-.96c-1.93-.07-3.47-1.18-4.25-3.07l-4.41-12.03c-.76-1.9-2.31-3.21-4.05-3.28l-41.45-1.6c-1.75-.06-3.3,1.13-4.08,2.97l-4.5,11.69c-.79,1.84-2.34,2.82-4.28,2.74l-25.18-.96c-1.94-.07-3.68-2.22-2.88-4.48l55.8-137.46c.78-1.84,2.33-2.82,4.08-2.76Zm-11.86,101.7c-.39,1.03,.18,2.3,1.34,2.34l24.79,.95c1.16,.04,1.75-1.19,1.36-2.23l-12.25-32.93c-.2-.63-.58-1.06-1.35-1.09-.78-.03-1.17,.36-1.36,.98l-12.54,31.98Zm58.71-99.96l96.97,7.98c1.74,.14,3.28,1.93,3.27,3.8l-.1,22.88c-.01,1.87-1.56,3.41-3.3,3.27l-30.91-2.54c-1.16-.1-2.12,.87-2.13,2.32l-.47,110.87c0,2.08-1.56,3.41-3.49,3.26l-24.15-1.99c-1.92-.16-3.28-1.73-3.27-3.8l.47-110.87c0-1.46-1.14-2.59-2.3-2.68l-30.72-2.53c-1.94-.16-3.28-1.94-3.27-3.81l.1-22.88c0-1.87,1.37-3.43,3.3-3.27Zm191.35,32.5c1.33,1.43,1.71,3.56,.55,5.07l-14.31,18.34c-1.16,1.51-3.47,1.84-5-.03-5.74-6.15-11.5-9.59-18.81-10.54-10.39-1.34-16.36,2.05-16.4,10.16v.62c-.04,8.94,7.25,13.21,26.46,19.65,25.55,8.49,38.18,23.45,38.08,46.54v.83c-.13,28.92-21.73,44.44-53.26,40.38-16.34-2.11-33.81-11.65-45.68-22.97-1.54-1.45-1.71-3.96-.55-5.27l14.51-18.73c.96-1.13,3.27-1.25,4.62,.17,6.89,7.35,17.82,13.75,27.24,14.97,15.57,2.01,21.18-3.72,21.21-11.22v-.82c.04-10.82-9.18-14.09-27.22-20.79-13.64-5.09-36.88-12.24-36.73-46.36v-.83c.11-27.05,19.41-42.24,47.86-38.57,14.04,1.81,26.12,8.36,37.43,19.4Z"/>
        <g>
          <path class="cls-21" d="M355.33,325.14l-57.87,1.12c-.6,0-1.18-.14-1.72-.36,.72,1.74,2.37,2.95,4.31,2.96l56.09-1.09v-1.78c.01-.4-.33-.85-.81-.85Z"/>
          <path class="cls-19" d="M300.29,272.28l40.2-.77v-1.58c0-.59-.34-1.05-.81-1.05l-41.97,.8c-.61,0-1.19-.14-1.73-.36,.72,1.73,2.37,2.95,4.31,2.96Z"/>
          <path class="cls-20" d="M222.08,263.04v-1.45c.04-7.46-2.42-13.22-6.74-16.63,2.7,3.45,4.19,8.22,4.17,14.03v1.46c-.06,13.09-7.65,22.09-19.33,22.95l-19.91,1.44h-.4c-.63,0-1.22-.11-1.76-.33,.7,1.76,2.34,2.94,4.34,2.95h.39s19.91-1.46,19.91-1.46c11.69-.85,19.27-9.86,19.33-22.95Z"/>
          <path class="cls-24" d="M251.47,331.87v-1.58c0-.58-.19-.89-.51-.9-7.65-.15-14.43-2.9-19.72-7.68,5.14,5.88,12.15,9.49,20.23,10.16Z"/>
          <path class="cls-22" d="M633.14,287.53c-10.65-3.57-18.07-6.61-22.63-10.38,4.04,5.07,12.22,8.63,25.21,12.99,10.06,3.35,17.91,7.65,23.71,13.02-5.97-6.6-14.64-11.74-26.29-15.62Z"/>
          <path class="cls-23" d="M415.24,316.79l24.79,.96c1.47,0,2.66-.62,3.42-1.69,.81-1.17,1-2.68,.49-4.06l-12.26-32.94c-.37-1.26-1.31-2.19-2.57-2.58l12.25,32.92c.5,1.38,.32,2.89-.49,4.06-.76,1.07-1.95,1.69-3.41,1.68l-24.81-.95c-.4-.01-.79-.11-1.15-.23,.12,.35,.28,.69,.48,.99,.74,1.12,1.92,1.78,3.25,1.84Z"/>
          <path class="cls-17" d="M590.95,293.65c-5.64-6.31-9.64-15.43-9.59-29.26v-.83c.1-22.62,14.39-36.61,37.3-36.51,2.46,.01,5.03,.18,7.61,.51,12.16,1.57,23.21,7.05,33.69,16.61-.08-.2-.19-.39-.33-.53-11.14-10.89-22.91-17-35.93-18.68-2.6-.34-5.16-.51-7.62-.52-22.91-.1-37.21,13.9-37.31,36.51v.83c-.07,15.87,5.21,25.53,12.16,31.86Z"/>
          <path class="cls-18" d="M470.21,236.63l1.71,.14,.09-21.62s0-.68,.42-.68l95.32,7.83v-1.26c0-.6-.57-1.16-.87-1.19l-97.02-7.98c-.43,0-.43,.68-.43,.68l-.1,22.88c0,.53,.36,1.15,.88,1.19Z"/>
          <path class="cls-48" d="M152.28,221.51c0-.55,.55-1.16,1.07-1.2l59.94-4.34c.78-.06,1.55-.09,2.33-.08,8.07,.04,15.48,3.3,21.39,8.7-6.25-6.95-14.67-11.27-23.96-11.31-.78,0-1.55,.03-2.34,.08l-59.94,4.34c-.53,.04-1.07,.65-1.07,1.2l-.6,139.79c0,.59,.28,.67,.58,.67l2.01-.15,.59-137.71Z"/>
          <path class="cls-49" d="M454.86,342.37c-.73-1.81-1.91-3.19-3.33-4.05,.28,.45,.54,.92,.74,1.44l4.38,11.95c.38,.93,1.01,1.41,1.92,1.45h.23s-3.95-10.8-3.95-10.8Z"/>
          <path class="cls-47" d="M508.2,247.06c.01-2.12-1.28-4.03-3.1-4.86,.32,.69,.53,1.45,.52,2.26l-.47,110.87c0,.33,.07,1.12,.87,1.19l1.71,.14,.47-109.59Z"/>
          <path class="cls-46" d="M41.8,234.78c0-.58,.42-1.28,.99-1.35l94.35-11.51v-2.34c.02-.35-.21-.53-.32-.53l-96.6,11.77c-.58,.07-1,.77-1,1.36l-.1,22.88s0,.54,.33,.54c0,0,.86-.1,2.26-.28l.09-20.54Z"/>
          <path class="cls-36" d="M577.09,348.89l14.49-18.69s.11-.03,.21-.03c.11,0,.38,.03,.57,.23,7.69,8.2,19.28,14.54,28.81,15.76,2.14,.28,4.17,.42,6.03,.43,16.3,.06,18.1-9.92,18.13-14.21v-.83c.02-5.56-1.96-9.38-5.76-12.51,2.1,2.64,3.21,5.79,3.19,9.91v.82c-.03,4.3-1.82,14.28-18.12,14.21-1.87,0-3.9-.15-6.04-.42-9.53-1.23-21.12-7.56-28.82-15.76-.18-.2-.46-.23-.57-.23-.1,0-.17,.02-.21,.03l-14.48,18.69c-.14,.19-.2,1.1,.39,1.66,.73,.69,1.46,1.36,2.22,2.02-.18-.47-.15-.95-.04-1.08Z"/>
          <path class="cls-42" d="M424.19,213.87c.21-.49,.66-1.13,1.5-1.13l4.3,.17-.44-1.16c-.21-.51-.71-1.39-1.72-1.43l-4.72-.18c-.84,0-1.29,.63-1.5,1.13l-55.76,137.34c-.03,.09-.13,.38,.09,.69,.14,.2,.34,.3,.43,.31l2.67,.11,55.16-135.86Z"/>
          <path class="cls-44" d="M270.05,213.53c0-.52,.51-.99,.75-.99l85.84-1.66v-1.78c0-.4-.34-.85-.81-.85l-87.6,1.7c-.25,0-.75,.46-.75,.99l-.6,139.78c0,.48,.41,.86,.61,.86h0l1.97-.04,.59-138.01Z"/>
          <path class="cls-45" d="M77.85,259.29c0-2.08-1.2-3.8-2.93-4.5,.23,.57,.36,1.22,.36,1.9l-.48,110.87c0,.34,.08,.52,.08,.53,0,0,.03,.02,.12,.02l.13-.02,2.26-.27,.47-108.53Z"/>
          <path class="cls-37" d="M198.82,311.24c-.26-1.73-1.46-3.22-3.01-3.95,.2,.43,.36,.87,.43,1.35,2.44,13.52,8.22,24.54,16.45,32.33-6.86-7.58-11.69-17.67-13.87-29.74Z"/>
        </g>
        <path class="cls-2" d="M21.51,128.55l36.75-6.11c13.28-2.21,24.67,8.67,24.67,23.95v.87c0,12.4-7,22.7-15.41,28.23-.84,.51-1.19,1.32-.95,2.16,2.26,8.14,8.54,12.86,16.84,12.23,1.06-.06,1.9,.68,1.9,1.94v13.28c0,1.13-.83,2.39-2.01,2.59-18.02,2.99-31.66-7.14-35.1-25.09-.12-.73-.83-1.37-1.66-1.22l-6.76,1.12c-.83,.14-1.42,.86-1.42,1.74v27.79c0,1.25-.95,2.29-2.01,2.46l-14.82,2.46c-1.19,.2-2.13-.51-2.13-1.77v-84.14c0-1.13,.94-2.29,2.13-2.49Zm16.84,37.39c0,.88,.59,1.41,1.42,1.27l12.21-2.03c6.28-1.05,10.31-6.22,10.31-13.23v-.88c0-7.01-3.91-10.62-10.31-9.55l-12.21,2.03c-.83,.14-1.42,.86-1.42,1.74v20.66Zm58.57-35.4l12.63-1.75c.9-.13,1.7,.61,1.7,1.56v70.85c0,.95-.8,1.91-1.7,2.03l-12.63,1.75c-.9,.12-1.71-.61-1.71-1.56v-70.85c0-.95,.81-1.9,1.71-2.03Zm24.63,30.77c0-20.99,14.07-36.93,33.58-39.16,7.34-.83,14.58,.66,20.41,4.63,.9,.64,.8,1.81,.3,2.6l-7.14,10.63c-.6,.81-1.81,1.26-2.61,.51-2.91-2.3-7.04-3.2-10.96-2.75-10.96,1.25-17.29,9.77-17.29,21.69v6.11c0,11.81,6.33,18.78,17.29,17.54,3.92-.45,7.74-2.15,10.85-5.14,.8-.83,1.92-.85,2.52-.18l7.34,9.17c.6,.68,.5,1.95-.3,2.68-5.83,5.31-12.47,8.17-20.41,9.07-19.81,2.26-33.58-10.41-33.58-31.28v-6.11Zm62.26-41.17l45.58-3.82c1-.08,1.81,.69,1.81,1.64v11.6c0,.95-.81,1.86-1.81,1.95l-30.06,2.51c-.6,.06-1.11,.63-1.11,1.25v13.08c0,.63,.5,1.12,1.11,1.07l21.78-1.83c1.01-.08,1.82,.7,1.82,1.75v10.12c0,.95-.8,1.86-1.82,1.95l-21.78,1.83c-.6,.05-1.11,.62-1.11,1.36v12.44c0,.63,.5,1.11,1.11,1.06l30.06-2.52c1-.08,1.81,.69,1.81,1.64v11.6c0,.95-.81,1.86-1.81,1.94l-45.58,3.81c-.91,.09-1.71-.69-1.71-1.64V122.07c0-.95,.8-1.86,1.71-1.94Zm74.05-22.31l15.01-.58c1.08-.04,2.04,.95,2.04,2.12v34.43c0,.65,.48,1.4,1.32,1.37l.48-.02c15.49-.59,24.49-18.21,25.46-34.76l.12-2.07c0-1.29,.96-2.23,2.17-2.28l15.6-.6c1.21-.04,2.17,.96,2.04,2.25l-.12,2.72c-1.08,16.94-8.17,31.65-19.21,40.97-.6,.54-.96,1.33-.48,2.21l22.69,39.37c.72,1.26-.12,3.35-1.8,3.42l-17.41,.67c-.72,.02-1.44-.33-1.8-1.1l-18.37-34.24c-.48-.88-1.32-1.11-2.16-.95-2.17,.46-4.45,.68-6.73,.77l-.48,.02c-.71,.03-1.32,.7-1.32,1.6v32.89c0,1.16-.96,2.24-2.04,2.27l-15.01,.57c-1.07,.05-2.04-.95-2.04-2.11V100.1c0-1.16,.97-2.23,2.04-2.27Zm75.42,11.86l31.38,.15c11.33,.05,21.04,11.17,21.04,24.42v.76c0,10.75-5.97,18.65-13.15,22.2-.71,.33-1.01,.97-.81,1.73,1.92,7.39,7.29,12.42,14.37,13.1,.91,.11,1.62,.88,1.62,1.96v11.51c0,.98-.7,1.95-1.72,1.94-15.39-.07-27.02-10.87-29.95-26.96-.1-.65-.71-1.31-1.42-1.31l-5.77-.03c-.7,0-1.21,.54-1.21,1.3v24.11c0,1.08-.81,1.84-1.72,1.83l-12.65-.05c-1.01,0-1.82-.77-1.82-1.86V111.53c0-.97,.81-1.85,1.82-1.84Zm14.37,34.92c0,.76,.51,1.31,1.21,1.31l10.42,.04c5.37,.03,8.81-3.86,8.81-9.95v-.75c0-6.09-3.34-9.79-8.81-9.82l-10.42-.04c-.7,0-1.21,.53-1.21,1.29v17.92Zm51.19-34.21l12.74,.39c.91,.03,1.72,.92,1.72,1.9v72.97c0,.97-.8,1.82-1.72,1.79l-12.74-.38c-.91-.03-1.72-.93-1.72-1.9V112.2c0-.98,.81-1.83,1.72-1.79Zm71.5,9.78c.7,.69,.91,1.79,.3,2.62l-7.48,10.12c-.6,.83-1.82,1.09-2.62,.17-3.03-2.99-6.06-4.57-9.9-4.78-5.45-.3-8.59,1.69-8.59,5.92v.32c0,4.67,3.84,6.63,13.95,9.25,13.44,3.46,20.1,10.79,20.1,22.84v.43c0,15.1-11.32,24.02-27.89,23.1-8.58-.48-17.78-4.8-24.05-10.25-.8-.7-.91-2-.3-2.73l7.58-10.33c.5-.63,1.72-.77,2.42-.08,3.64,3.57,9.4,6.49,14.35,6.77,8.19,.46,11.11-2.75,11.11-6.66v-.43c0-5.65-4.85-7-14.35-9.81-7.17-2.14-19.4-4.99-19.4-22.8v-.44c0-14.11,10.1-22.78,25.06-21.95,7.38,.41,13.74,3.37,19.7,8.7Zm15.35-5.46l31.66,2.79c11.39,1.01,20.96,12.93,20.96,26.18v.76c0,14.23-9.37,24.15-21.97,23.05l-15.12-1.33c-.6-.05-1.21,.43-1.21,1.09v23.56c0,1.09-.7,1.79-1.71,1.7l-12.6-1.12c-1.01-.09-1.71-.9-1.71-2V116.42c0-.98,.71-1.79,1.71-1.7Zm14.31,18.21v17.7c0,.76,.61,1.36,1.21,1.41l10.18,.89c5.34,.47,8.77-3.03,8.77-9v-.76c0-6.09-3.43-10.08-8.87-10.56l-10.08-.89c-.6-.05-1.21,.44-1.21,1.2Zm46.8-12.45l12.66,1.41c.91,.1,1.72,1.06,1.72,2.03v72.97c0,.98-.81,1.76-1.72,1.66l-12.66-1.41c-.91-.1-1.71-1.06-1.71-2.03V122.12c0-.98,.8-1.76,1.71-1.65Zm29.01,3.25l45.33,6.1c1.02,.14,1.81,1.12,1.81,2.08v11.95c0,.98-.8,1.74-1.81,1.6l-29.88-4.03c-.59-.08-1.1,.4-1.1,1.05v13.47c0,.65,.5,1.26,1.1,1.34l21.67,2.91c1,.13,1.8,1.11,1.8,2.2v10.42c0,.98-.81,1.74-1.8,1.61l-21.67-2.92c-.59-.08-1.1,.39-1.1,1.15v12.82c0,.65,.5,1.26,1.1,1.34l29.88,4.03c1.02,.13,1.81,1.11,1.81,2.09v11.94c0,.98-.8,1.74-1.81,1.6l-45.33-6.1c-.9-.11-1.7-1.09-1.7-2.08V125.33c0-.98,.8-1.74,1.7-1.61Zm108.29,9.8c.82,.92,1.07,2.25,.36,3.15l-8.77,11.04c-.71,.91-2.13,1.06-3.09-.13-3.55-3.95-7.11-6.23-11.61-6.98-6.4-1.08-10.07,.88-10.07,5.91v.39c0,5.54,4.5,8.37,16.35,12.81,15.76,5.87,23.58,15.44,23.58,29.76v.51c0,17.93-13.27,27.04-32.7,23.77-10.07-1.69-20.86-8.03-28.2-15.33-.95-.93-1.06-2.5-.35-3.29l8.88-11.26c.59-.67,2.02-.7,2.84,.22,4.27,4.71,11.02,8.94,16.83,9.91,9.6,1.62,13.03-1.79,13.03-6.44v-.51c0-6.71-5.68-8.95-16.82-13.54-8.41-3.48-22.75-8.47-22.75-29.62v-.51c0-16.77,11.86-25.74,29.39-22.78,8.65,1.45,16.12,5.81,23.11,12.91Z"/>
        <g class="cls-8">
          <path class="cls-43" d="M278.36,138.94l.59-.02c16.36-.63,25.95-18.71,26.97-36.25l.12-2.07c0-.55,.32-.77,.64-.79l13.74-.53,.07-1.75c.02-.17-.02-.3-.1-.4-.05-.05-.14-.11-.3-.11l-15.61,.6c-.32,.01-.64,.23-.65,.79l-.12,2.06c-1.02,17.54-10.61,35.63-26.97,36.25l-.6,.02c-.2,0-.38-.03-.56-.07,.29,1.19,1.28,2.26,2.75,2.26Z"/>
          <path class="cls-39" d="M385.95,173.62c-3.61-.35-6.85-1.79-9.5-4.04,2.5,3.01,5.86,5.05,9.69,5.88v-1.45c0-.14-.03-.37-.18-.39Z"/>
          <path class="cls-40" d="M201.45,153.2l19.82-1.65-.02-2.38-22,1.83c-.12,0-.22-.06-.33-.07,.19,1.27,1.22,2.26,2.53,2.26Z"/>
          <path class="cls-38" d="M369.09,146.51c1.81-2.06,2.77-4.92,2.77-8.29v-.76c0-4.36-1.63-7.73-4.42-9.65,1.4,1.92,2.22,4.43,2.22,7.45v.75c0,3.37-.95,6.24-2.77,8.3-1.86,2.11-4.48,3.23-7.62,3.23l-10.43-.04c-.17,0-.31-.07-.48-.1,.26,1.32,1.3,2.28,2.67,2.29l10.42,.04c3.15,0,5.76-1.11,7.63-3.23Z"/>
          <path class="cls-41" d="M81.94,191.52c-4.2,0-7.89-1.32-10.82-3.7,3.08,3.66,7.43,5.75,12.59,5.86v-1.86c0-.36-.1-.36-.2-.36-.53,.04-1.06,.07-1.58,.07Z"/>
          <path class="cls-51" d="M23.16,133.23c0-.35,.37-.85,.81-.92l36.75-6.1c1.05-.18,2.11-.27,3.15-.27,4.52,0,8.62,1.69,11.9,4.53-3.55-4.17-8.52-6.73-14.11-6.73-1.03,0-2.1,.09-3.14,.26l-36.76,6.11c-.43,.07-.81,.57-.81,.92l.04,84.34s.05,.02,.13,.02h.12s1.93-.33,1.93-.33l-.02-81.84Z"/>
          <path class="cls-59" d="M199.47,179.67h-.23c-.11,0-.21-.05-.32-.06,.19,1.27,1.22,2.27,2.52,2.27h.22s27.87-2.35,27.87-2.35l-.02-2.38-30.05,2.52Z"/>
          <path class="cls-52" d="M66.07,154.14v-.88c0-4.51-1.58-7.89-4.32-9.74,1.34,1.91,2.12,4.45,2.12,7.54v.88c0,7.81-4.56,13.61-11.64,14.79l-12.21,2.03c-.18,.03-.35,.04-.52,.04s-.29-.06-.44-.09c.25,1.32,1.27,2.29,2.64,2.29,.16,0,.34,0,.51-.04l12.22-2.04c7.07-1.18,11.63-6.98,11.63-14.79Z"/>
          <path class="cls-50" d="M673.69,146.42c.06,.06,.11,.11,.16,.17,.09,.1,.17,.16,.25,.21-.13-.13-.26-.25-.4-.37Z"/>
          <path class="cls-60" d="M641.51,164.66c-3.56-4.07-6.12-9.86-6.12-18.57v-.52c0-13.62,8.01-21.76,21.43-21.76,1.95,0,4.01,.18,6.11,.53,7.24,1.22,13.85,4.67,20.15,10.46-.04-.07-.05-.14-.1-.19-6.92-7.03-14.19-11.11-22.24-12.47-2.11-.35-4.17-.53-6.11-.53-13.42,0-21.43,8.13-21.43,21.76v.51c0,10.41,3.66,16.67,8.32,20.77Z"/>
          <path class="cls-61" d="M666.73,161.18c-6.14-2.3-10.53-4.25-13.37-6.49,2.46,3.26,7.51,5.66,15.56,8.68,5.74,2.14,10.32,4.73,13.82,7.83-3.69-4.1-8.99-7.41-16.01-10.03Z"/>
          <path class="cls-63" d="M503.27,155.8l10.18,.89c.37,.03,.73,.05,1.07,.05,2.84,0,5.23-1.02,6.91-2.96,1.64-1.88,2.5-4.53,2.5-7.67v-.76c0-4.41-1.72-7.95-4.61-10.05,1.53,2.05,2.42,4.72,2.42,7.85v.76c0,3.13-.86,5.78-2.5,7.67-1.69,1.93-4.07,2.96-6.91,2.96-.35,0-.71-.01-1.08-.05l-10.18-.89c-.12-.01-.21-.07-.32-.1,.3,1.21,1.29,2.19,2.52,2.29Z"/>
          <path class="cls-65" d="M455.59,145.34c-4.93-1.28-9.04-2.51-11.73-4.43,2.22,3.3,7.36,4.92,13.93,6.62,5.27,1.36,9.38,3.3,12.41,5.88-3.11-3.71-7.93-6.36-14.6-8.08Z"/>
          <path class="cls-64" d="M433.51,149.86c-2.47-3-4.16-7.31-4.16-13.8v-.43c0-12.4,8.45-20.43,21.52-20.43,.62,0,1.24,.02,1.87,.06,5.97,.33,11.43,2.48,16.63,6.53,.06-.17-.02-.37-.09-.43-5.83-5.21-11.96-7.93-18.74-8.31-.63-.03-1.26-.05-1.87-.05-13.07,0-21.52,8.02-21.52,20.42v.44c0,8.27,2.72,13.02,6.36,16Z"/>
          <path class="cls-62" d="M593.25,161.05l19.91,2.68v-1.33c0-.33-.26-.61-.44-.63l-21.66-2.92c-.05,0-.1-.04-.16-.05,.28,1.15,1.18,2.09,2.35,2.25Z"/>
          <path class="cls-56" d="M593.25,190.58l28.13,3.79v-1.44c0-.21-.24-.5-.43-.52l-29.89-4.03c-.05,0-.1-.04-.16-.05,.28,1.15,1.18,2.09,2.35,2.25Z"/>
          <path class="cls-54" d="M487.75,118.62l31.64,2.66c3.89,.35,7.57,2.1,10.65,4.78-3.46-3.91-7.97-6.55-12.84-6.98l-31.65-2.66v72.97c0,.19,.05,.41,.27,.42l1.92,.17V118.62Z"/>
          <path class="cls-58" d="M434.9,170.01c4.16,4.15,10.33,7.05,15.42,7.34,.55,.03,1.08,.04,1.59,.04,10.1,0,11.19-5.79,11.19-8.28v-.43c0-3.11-1.22-5.13-3.43-6.69,.8,1.21,1.23,2.66,1.23,4.5v.43c0,2.49-1.09,8.28-11.19,8.28-.51,0-1.04-.02-1.59-.04-5.08-.28-11.26-3.19-15.41-7.33l-7.63,10.4c-.06,.09-.04,.4,.12,.54,.67,.57,1.37,1.12,2.08,1.66l7.63-10.4Z"/>
          <path class="cls-55" d="M400.89,114.39c0-.11,.09-.21,.13-.22l10.69,.33v-1.82c0-.15-.14-.3-.18-.32l-12.71-.39s-.13,.11-.13,.22v72.97c0,.14,.14,.3,.18,.32l2.02,.06V114.39Z"/>
          <path class="cls-53" d="M548.87,124.32l10.73,1.12v-1.53c0-.18-.2-.44-.3-.47l-12.63-1.32v72.97c0,.19,.21,.43,.31,.46l1.89,.21V124.32Z"/>
          <path class="cls-57" d="M632.97,198.4l8.95-11.35c.05,.12,.27,.13,.43,.3,4.75,5.25,11.88,9.44,17.74,10.42,1.69,.29,3.26,.43,4.67,.43,9.22,0,10.21-5.9,10.21-8.43v-.52c0-3.65-1.4-6.13-4.06-8.23,1.23,1.64,1.86,3.57,1.86,6.03v.51c0,2.53-.99,8.44-10.21,8.44-1.41,0-2.98-.15-4.66-.43-5.86-.99-12.99-5.17-17.74-10.42-.16-.18-.38-.19-.43-.3l-8.95,11.35c-.09,.14-.09,.73,.29,1.11,.62,.61,1.29,1.2,1.95,1.79-.11-.3-.11-.61-.04-.7Z"/>
          <path class="cls-27" d="M359.79,162.42c-.18-1.2-1.14-2.17-2.29-2.47,.01,.1,.07,.18,.09,.28,1.43,7.84,4.99,14.28,10.01,18.75-3.86-4.29-6.59-9.91-7.81-16.55Z"/>
          <path class="cls-26" d="M577.89,127.52l43.48,5.82v-1.44c0-.2-.24-.49-.43-.52l-45.25-6.05v72.97c0,.2,.22,.48,.32,.51l1.87,.25V127.52Z"/>
          <path class="cls-29" d="M125.33,169.62v-6.12c0-19.97,13.23-35.42,32.17-37.58,1.25-.14,2.51-.21,3.74-.21,4.75,0,9.2,1.07,13.08,3.09l.18-.26c.14-.21,.15-.42,.14-.45-4.4-3-9.79-4.58-15.6-4.58-1.23,0-2.48,.07-3.74,.22-18.94,2.16-32.18,17.61-32.18,37.58v6.11c0,10.26,3.43,18.47,9.43,23.68-4.62-5.2-7.23-12.56-7.23-21.49Z"/>
          <path class="cls-28" d="M51.94,184.49c-.19-1.18-1.12-2.1-2.27-2.4,.02,.07,.06,.13,.08,.2,1.47,7.68,4.8,13.79,9.57,17.97-3.6-4.02-6.14-9.35-7.38-15.78Z"/>
          <path class="cls-32" d="M154.87,187.02c.85,0,1.73-.05,2.63-.15,4.44-.51,8.51-2.44,11.77-5.57,.01-.01,.02-.01,.03-.03l-1.89-2.38s-.16,.03-.33,.22c-3.27,3.13-7.34,5.06-11.77,5.56-.89,.1-1.78,.16-2.63,.16-4.01,0-7.41-1.18-10.07-3.31,2.85,3.53,7.04,5.51,12.27,5.51Z"/>
          <path class="cls-30" d="M98.99,134.77c0-.18,.22-.44,.34-.47l10.43-1.44v-2.5s-12.63,1.74-12.63,1.74c-.12,.03-.34,.28-.34,.46v70.84s2.2-.3,2.2-.3v-68.34Z"/>
          <path class="cls-31" d="M289.18,153.15c-.43-.79-1.09-1.33-1.88-1.61l18.08,33.73c.03,.06,.1,.19,.32,.19,0,0,.29-.01,.79-.03l-17.31-32.28Z"/>
          <path class="cls-34" d="M335.23,113.73c0-.12,.11-.26,.23-.26l31.37,.15c4.26,.02,8.24,1.76,11.48,4.6-3.54-4.15-8.4-6.78-13.68-6.8l-31.37-.15c-.13,0-.24,.14-.24,.26v72.97c0,.12,.02,.27,.25,.27h1.95s0-71.04,0-71.04Z"/>
          <path class="cls-35" d="M185.87,124.27c0-.14,.18-.33,.27-.36l43.39-3.63-.02-2.37-45.58,3.81c-.09,.02-.27,.22-.27,.36l.04,70.93,2.19-.19-.04-68.55Z"/>
          <path class="cls-33" d="M259.59,102.29c0-.37,.34-.68,.52-.69l13.21-.5v-1.73c0-.3-.26-.54-.39-.54l-15.02,.58c-.17,.01-.52,.32-.52,.69v86.67c0,.31,.26,.53,.39,.53l1.8-.06V102.29Z"/>
        </g>
      </g>
      <g id="Kelloggs">
        <g>
          <path class="cls-7" d="M459.66,45.76c.1,6.22-1.61,11.28-4.92,14.65-2.97,3.02-6.99,4.54-11.97,4.54-4.81,0-8.41-2.16-10.42-5.06-2.3,1.61-4.38,2.96-6.14,3.97-.14,.24-.28,.48-.41,.72-4.69,8.32-11.8,20.89-24.05,20.89-7.05,0-10.85-4.91-10.85-9.51,0-.37,.01-.73,.04-1.09-5.06,6.78-10.59,10.7-18.24,10.7-7.18,0-11.06-4.97-11.06-9.65,0-5.43,3.68-10.79,10.11-14.7,.78-.47,1.63-.94,2.51-1.39-.57-.61-1.07-1.29-1.47-2.04-3.58,4.21-8.24,7.36-14.01,7.36-2.75,0-5.28-.99-7.22-2.65-2.29,1.56-5.38,2.98-9.13,2.98-4.14,0-7.29-2.03-9.33-4.57-3.28,2.09-7.07,3.77-11.1,3.77-3.8,0-7.23-1.27-9.73-3.5-4.14,2.68-8.37,3.99-12.82,3.99-3.8,0-7.07-1.27-9.3-2.97-.83,.16-1.59,.25-2.31,.25-.05,0-.13-.01-.19-.01,.01,.18,.04,.32,.05,.46,.96,.34,1.8,.96,2.4,1.8,.9,1.27,1.18,2.92,.75,4.42-.01,.06-.03,.11-.05,.17-1.47,4.51-6.34,6.11-10.07,6.11h-.01c-5.17-.01-12.82-4.12-12.82-12.93,0-.15,0-.31,0-.46-2.82,3.86-6.71,7.52-12.05,7.52-5.62,0-9.85-4.21-9.85-9.8,0-4.94,3.01-8.3,7.09-12.13-3.55-1.2-5.59-4.69-5.59-8.07,0-7.12,5.84-11.33,18.94-18.08l26.85,13.37h142.08s-.76-5.25-.76-5.25c-.74-1.12-1.45-2.72-1.23-4.85,.51-4.8,5.29-9.01,10.23-9.01,2.54,0,4.84,.98,6.47,2.78,1.66,1.84,2.47,4.39,2.21,7.02-.08,.76-.22,1.5-.43,2.22l7.79,18.07Z"/>
          <path class="cls-2" d="M463.53,26.22c-1.36-.82-3.05-1.28-4.95-1.28-1.82,0-3.49,.43-5.09,1.13,.21-.71,.35-1.46,.43-2.22,.26-2.62-.55-5.18-2.21-7.02-1.63-1.79-3.92-2.78-6.47-2.78-4.93,0-9.7,4.21-10.22,9-.22,2.14,.48,3.74,1.23,4.86-.22,.36-.43,.77-.61,1.24-.23-.37-.49-.72-.8-1.03-.91-.93-2.59-2.01-5.43-2.01-5.15,0-11.12,2.69-16.15,6.64-.2-.81-.53-1.56-.99-2.22-1.2-1.74-3.19-2.74-5.45-2.74-1.22,0-2.55,.29-3.87,.85-1.32-1.41-3.26-2.27-5.49-2.27-1.35,0-2.74,.3-4.13,.91-.7,.31-1.34,.59-1.94,.85-2.77,1.24-4.02,1.8-6.06,1.8-1.63,0-2.4-.33-3.37-.75l-.41-.18c-2.18-.92-4.47-1.04-6.49-.36-.03,.01-.06,.02-.09,.04-.99-.82-2.49-1.56-4.73-1.56-.7,0-1.41,.06-2.14,.2,3.62-5.58,6.34-11.5,6.55-16.89,.13-3.34-1.11-5.36-2.17-6.47-1.02-1.05-2.83-2.31-5.76-2.31-5.87,0-12.26,5.22-17.21,10.5-.4-1.25-1.06-2.15-1.64-2.76-1.03-1.06-2.91-2.31-6.1-2.31-7.99,0-16.59,7.87-21.53,14.61-1.79,2.43-3.38,5.02-4.79,7.71-1.65-1.98-4.05-3.07-6.5-3.26,4.57-3.98,8.11-7.63,9.24-9.4,3.56-5.6,2.93-12-1.51-15.22C315.3,.53,313.63,0,311.87,0c-4.8,0-9.05,3.67-11.44,7.1-2.07,2.97-3.91,5.55-5.62,7.79-.08-.92-.35-1.66-.61-2.18-1.07-2.14-3.28-3.42-5.93-3.42-2.03,0-4.22,.75-6.19,2.12-1.11,.77-7,4.79-14,8.4-13.09,6.75-18.94,10.96-18.94,18.07,0,3.39,2.05,6.87,5.59,8.07-4.07,3.84-7.09,7.19-7.09,12.13,0,5.59,4.24,9.8,9.86,9.8,5.34,0,9.22-3.66,12.05-7.51,0,.15,0,.3,0,.45,0,8.81,7.65,12.93,12.82,12.93h0c3.72,0,8.59-1.61,10.07-6.11,.02-.06,.04-.12,.04-.17,.44-1.51,.15-3.16-.74-4.42-.6-.85-1.44-1.47-2.41-1.8-.02-.13-.03-.28-.05-.45,.07,0,.13,0,.2,0,.7,0,1.47-.08,2.29-.25,2.24,1.7,5.51,2.97,9.31,2.97,4.45,0,8.69-1.31,12.82-4,2.49,2.23,5.92,3.51,9.72,3.51,4.02,0,7.82-1.69,11.1-3.77,2.05,2.55,5.2,4.57,9.33,4.57,3.75,0,6.84-1.43,9.13-2.98,1.93,1.67,4.48,2.66,7.22,2.66,5.76,0,10.42-3.15,14.01-7.37,.41,.76,.91,1.44,1.47,2.04-.88,.46-1.73,.92-2.51,1.39-6.42,3.91-10.11,9.27-10.11,14.7,0,4.68,3.87,9.65,11.05,9.65,7.65,0,13.18-3.92,18.25-10.7-.04,.36-.05,.72-.05,1.08,0,4.62,3.8,9.52,10.84,9.52,12.27,0,19.36-12.57,24.06-20.89,.13-.24,.28-.49,.41-.73,1.75-1,3.83-2.35,6.14-3.96,2.01,2.91,5.61,5.06,10.41,5.06s9-1.53,11.97-4.54c3.31-3.37,5.01-8.43,4.91-14.65-.02-1.88-.22-3.5-.34-4.56,0-.03,0-.05-.01-.08,3.52-.42,5.09-2.18,5.78-3.82,0,0,2.23-6.59-3.17-9.46Z"/>
          <path class="cls-4" d="M458.59,29.31c-3.77,0-7.21,3.04-11.47,6.59-3.92,3.25-11.92,11.46-19.23,16.15,2.03-3.2,6.94-10.12,7.68-13.35,.78-3.4-1.71-4.71-5.15-2.62-3.73,2.28-7.3,13.35-12.57,13.35-.96,0-1.63-.47-1.63-1.55,.03-3.24,5.05-9.7,14.07-13.26,1.39-.55,1.94-1.47,1.94-2.24,0-.25-.04-1.89-2.81-1.89-8.9,0-20.93,10.37-22.61,18.33-1.74,1.75-4.86,4.33-8.82,6.01,4.47-6.31,8.31-11.4,10.33-16.67,2.35-6.14-.96-6.95-4.36-5.15-3.3,1.76-5.64,6.61-6.61,8.46-.96,1.84-1.78,4.19-4.7,6.52-2.91,2.33-5.92,1.94-3.78-2.62,1.9-4.07,6.2-8.35,9.88-10.31,.88-.47,1.64-.75,1.61-1.92-.04-1.86-2.2-3.16-5.28-1.83-4.18,1.81-6.19,3.02-9.73,3.02-2.81,0-4.27-.77-5.47-1.27-1.62-.68-2.8-.45-3.42-.24-.58,.19-1.47,.74-2.22,1.55-.59,.65-1.09,1.71-1.2,2.39-.84,4.98-5.2,13.92-8.41,13.92-1.11,0-2.34-.31-2.03-2.87,.51-4.16,5.55-9.8,6.7-10.93,1.16-1.12,3.37-1.89,3.52-3.15,.13-1.06-.5-2.22-2.58-2.22-6.78,0-15.85,9.4-16.76,17.84-1.05,.99-2.32,1.94-3.77,1.94-3.12,0-4.01-2.92-3.79-5.25,8.25-7.43,23.88-23.99,24.36-35.77,.11-2.82-1.27-4.23-3.56-4.23-5.84,0-13.98,8.49-19.06,15.04-6.24,8.06-10.07,17.8-11.43,25.18-4.57,3.96-6.41,4.21-8.4,4.21-2.76,0-3.73-2-3.64-3.56,7.7-6.98,21.08-23.63,21.34-31.86,.08-2.45-1.3-3.59-3.77-3.59-5.23,0-12.67,5.54-18.01,12.82-5.34,7.28-8.8,15.85-9.78,23.62-4,3.59-6.98,4.31-9.45,4.31-1.49,0-2.58-1.04-2.84-1.47,3.54-2.04,11.59-7.16,11.59-14.78,0-3.78-2.56-5.47-5.1-5.47-6.47,0-16.64,8.05-16.58,19.17,0,.2,.04,.88,.08,1.13-2.93,1.02-4.96,2.04-4.48,4.15,.42,1.9,2.79,1.81,5.88,.72,.7,1.32,3.73,3.5,8,3.5,5.78,0,10.2-2.74,13.69-5.72,1.46,3.43,5.07,5.23,8.85,5.23,4.59,0,9.13-3.11,12.71-5.92,.42,2.62,3.09,6.72,7.73,6.72,4.22,0,7.45-2.46,10.01-5.11,.68,2.67,3.13,4.79,6.34,4.79,10.7,0,16.69-15.13,18.07-20.57,.17-.69,.84-.84,1.29-.69,1.99,.7,2.96,1.05,5.48,.76-4.08,3.2-7.67,8.66-7.67,12.64,0,3.98,3.46,5.83,5.98,5.83,2.53,0,5.86-1.63,8.07-3.68-.58,1.17-1.37,2.96-2.63,4.23-2.29,.63-9.07,3.07-13.35,5.69-4.08,2.47-8.01,6.42-8.01,10.96,0,2.42,2,5.27,6.68,5.27,7.87,0,13.38-5.14,20.81-18.65,6.16-2.57,9.84-4.98,12.26-7.03,1.05,1.85,3.09,2.71,5.15,2.71,3.01,0,4.83-.87,7.26-2.62-.34,.82-.88,2.06-1.7,3.18-4.39,1.82-9.68,4.24-12.39,5.87-7.21,4.35-8.8,8.25-8.8,11.32,0,1.88,1.62,5.14,6.47,5.14,10.52,0,17.03-13.07,21.28-20.46,3.11-1.65,7.55-4.71,12.12-8.2-.17,.56-.25,1.14-.25,1.8,0,3.27,2.98,6.35,7.87,6.35,9.63,0,12.64-7.09,12.52-14.75-.04-2.51-.42-4.5-.45-5.39-.11-2.33,.68-3.59,2.81-3.59,2.14,0,3.6-.38,3.6-2.22,0-2.53-1.81-3.69-4.27-3.69Zm-97.09-13.57c.27,0,.39,.25,.38,.62-.08,3.01-7.85,15.21-15.04,22.3,4.33-12.7,12.96-22.93,14.66-22.93m-61.45,30.59c.32-5.42,4.61-9.59,6.31-9.59,.62,0,.91,.36,.91,1.1,0,1.94-2.59,5.96-7.22,8.49m36.51-26.1c.32,0,.46,.25,.45,.66-.06,2.23-5.65,12.48-12.83,19.57,3.77-11.51,9.91-20.23,12.38-20.23m39.28,52.44c-.55,0-.83-.35-.83-.88,0-3.3,7.32-7.19,11.15-8.6-1.65,2.67-7.72,9.48-10.32,9.48m29.27,.18c-.53,0-.73-.33-.73-.85,0-2.91,6.63-7.42,10.46-8.82-1.99,3.46-7.52,9.67-9.73,9.67m39.97-20.93c-.47,0-1.16-.1-1.16-1.66,0-1.12-.55-2.37-2.51-2.37-.26,0-.56,.02-.88,.08,4.21-3.33,7.49-7,10.56-9.47-.63,7.57-2.44,13.43-6.01,13.43m-3.68-24c.14-1.3-2.28-2.11-2.05-4.39,.25-2.33,2.93-5.09,5.87-5.09,2.91,0,4.6,2.32,4.33,4.99-.51,5.31-6.44,8.72-8.64,8.74-.87,.01-1.34-.45-1.28-1.13,.13-1.2,1.61-1.79,1.75-3.12m-153.73,37.43c.59,.03,.7,.6,.61,.94-.74,2.23-3.69,3.09-5.92,3.09-2.43,0-8.45-2.04-8.45-8.55,0-7.96,4.22-13.67,4.93-18.39,.39-2.62-.33-3.91-1.51-4.53-1.11,2.14-6.42,12.03-7.38,13.61-2.42,3.96-6.45,11.99-12.46,11.99-2.85,0-5.49-1.91-5.49-5.43,0-5.38,6.38-8.76,14.2-17.21,5.38-5.81,8.86-10.88,8.86-12.68,0-.55-.2-.73-.49-.73-.9,0-3.19,1.98-4.17,2.88-2.54,2.33-7.71,11.68-12.95,11.68-2.68,0-3.96-2.3-3.96-4.14,0-4.14,3.22-7.3,16.58-14.19,7.5-3.86,13.68-8.14,14.49-8.69,3.91-2.72,7.95-1.11,4.68,3.19-2.73,3.59-10.05,15.55-10.05,15.55,1.91-.26,3.83-.32,7.79-3.76,5.07-4.41,9.57-9.65,17.02-20.38,2.7-3.89,7.28-6.55,10.1-4.51,2.81,2.04,2.42,6.12,.38,9.33-2.03,3.2-17.9,17.87-28.61,22.17,2.82,2.89,2.49,7.93,1.72,11.04-.78,3.09-2.71,9.61-2.71,12.62,0,2.74,.88,5,2.78,5.1"/>
        </g>
      </g>
      <g id="R">
        <text class="cls-6" transform="translate(470.01 35.19)"><tspan x="0" y="0"></tspan></text>
        <text class="cls-6" transform="translate(695.53 260.67)"><tspan x="0" y="0"></tspan></text>
      </g>
    </g>
  </g>
</svg>